<?xml version="1.0" encoding="utf-8"?>
<!-- Generator: Adobe Illustrator 17.1.0, SVG Export Plug-In . SVG Version: 6.00 Build 0)  -->
<!DOCTYPE svg PUBLIC "-//W3C//DTD SVG 1.1//EN" "http://www.w3.org/Graphics/SVG/1.1/DTD/svg11.dtd">
<svg version="1.1" id="Слой_1" xmlns="http://www.w3.org/2000/svg" xmlns:xlink="http://www.w3.org/1999/xlink" x="0px" y="0px"
	 width="44px" height="44px" viewBox="0 0 44 44" style="enable-background:new 0 0 44 44;" xml:space="preserve">
<style type="text/css">
	.st0{fill:#BF7B30;}
	.st1{display:none;opacity:0.3;}
	.st2{display:inline;fill:#BF7B30;}
	.st3{display:inline;}
</style>
<g id="при_наведении">
	<path class="st0" d="M18.4,11.6c0.2-0.2,0.5-0.2,0.7,0l9.2,9.6c0.4,0.4,0.4,1,0,1.4l-9.1,9.6c-0.1,0.1-0.2,0.2-0.4,0.2
		c-0.1,0-0.2,0-0.3-0.1c-0.2-0.2-0.2-0.5,0-0.7l8.5-9c0.4-0.4,0.4-1,0-1.4l-8.6-9C18.2,12.1,18.2,11.8,18.4,11.6z"/>
	<g>
		<g>
			<path class="st0" d="M21.8,6.5c8.8,0,16,7.2,16,16s-7.2,16-16,16s-16-7.2-16-16S12.9,6.5,21.8,6.5 M21.8,5.5c-9.4,0-17,7.6-17,17
				s7.6,17,17,17s17-7.6,17-17S31.1,5.5,21.8,5.5L21.8,5.5z"/>
		</g>
	</g>
</g>
<g id="при_наведении_1_" class="st1">
	<path class="st2" d="M18.4,11.6c0.2-0.2,0.5-0.2,0.7,0l9.2,9.6c0.4,0.4,0.4,1,0,1.4l-9.1,9.6c-0.1,0.1-0.2,0.2-0.4,0.2
		c-0.1,0-0.2,0-0.3-0.1c-0.2-0.2-0.2-0.5,0-0.7l8.5-9c0.4-0.4,0.4-1,0-1.4l-8.6-9C18.2,12.1,18.2,11.8,18.4,11.6z"/>
	<g class="st3">
		<g>
			<path class="st0" d="M21.8,6.5c8.8,0,16,7.2,16,16s-7.2,16-16,16s-16-7.2-16-16S12.9,6.5,21.8,6.5 M21.8,5.5c-9.4,0-17,7.6-17,17
				s7.6,17,17,17s17-7.6,17-17S31.1,5.5,21.8,5.5L21.8,5.5z"/>
		</g>
	</g>
</g>
</svg>
