<?xml version="1.0" encoding="utf-8"?>
<!-- Generator: Adobe Illustrator 17.1.0, SVG Export Plug-In . SVG Version: 6.00 Build 0)  -->
<!DOCTYPE svg PUBLIC "-//W3C//DTD SVG 1.1//EN" "http://www.w3.org/Graphics/SVG/1.1/DTD/svg11.dtd">
<svg version="1.1" id="Слой_1" xmlns="http://www.w3.org/2000/svg" xmlns:xlink="http://www.w3.org/1999/xlink" x="0px" y="0px"
	 width="101px" height="76px" viewBox="0 0 101 76" style="enable-background:new 0 0 101 76;" xml:space="preserve">
<style type="text/css">
	.st0{fill:#C88366;}
	.st1{fill:#FFFFFF;}
</style>
<g id="земной_шар_1_">
	<path class="st0" d="M59,6.3c18.3,0,33.2,14.9,33.2,33.2S77.3,72.6,59,72.6S25.8,57.7,25.8,39.4S40.7,6.3,59,6.3 M59,3.8
		c-19.7,0-35.7,16-35.7,35.7s16,35.7,35.7,35.7c19.7,0,35.7-16,35.7-35.7S78.7,3.8,59,3.8L59,3.8z"/>
	<path class="st0" d="M82.6,29.3c0,0-0.4-0.7-0.6-0.9c-0.2-0.2-0.3-0.5-0.6,0c-0.3,0.5-0.7,0.2-1.4-0.2c-0.7-0.3-1.8-0.9-2.2-1.1
		s-1.2-0.4-1.1,0.2c0.2,0.7-0.2,1.1-0.3,1.1c-0.1,0-1.2-0.4-1.5-0.6c-0.3-0.3-0.5-0.7-0.9-0.9c-0.3-0.2-1.4-0.1-1.8-0.5
		c-0.4-0.4-0.7-0.7-0.4-0.9c0.3-0.1,0.3-0.6,0.1-0.8c-0.2-0.2-0.1-0.9-0.5-0.8c-0.4,0-0.5,0.5-0.8,0.5c-0.3,0-1.6-0.1-1.8-0.2
		c-0.3-0.1-1.6-0.1-2.1,0.2c-0.5,0.3-1.1,0.9-1.5,0.9c-0.4,0-0.7-0.3-1.1-0.5c-0.4-0.2-0.3-0.5-0.5-0.4c-0.3,0.1-0.7,0.8-0.9,1
		c-0.2,0.2-1.4,1.1-1.5,1.4c-0.1,0.3-0.2,1-0.3,1.2c-0.1,0.2-1.5,1.1-2.1,1.7c-0.6,0.6-0.6,1.5-1.1,2c-0.5,0.5-0.9,1.2-0.9,1.6
		c0,0.3,0.5,1.3,0.5,1.9c0,0.6-0.5,1.6-0.7,1.8c-0.2,0.2-0.3,0.6,0,0.7s0.3,0.6,0.3,0.7c0,0.1-0.3,0.3-0.1,0.6c0.2,0.2,0.6,0.6,1,1
		c0.4,0.4,0.9,0.9,1,1.1c0.1,0.3,0,0.7,0.3,1c0.3,0.3,1.6,1.7,2,1.9s0.9,0.1,1,0.2c0.1,0.1,0.6-0.1,0.7-0.2s0.5-0.1,0.7-0.2
		s0.5-0.5,0.6-0.5c0.1,0,0.5,0.7,1,0.5c0.5-0.1,2.3-1.1,3-1.2s1.3,0.4,1.3,0.7c0,0.3-0.1,0.8,0.3,0.8s0.5-0.6,0.9-0.5
		s1.2,0.5,1.3,1.3c0.1,0.8-0.6,1.8-0.6,2.4c0,0.6,1,1.3,1.3,1.7s0.5,1.2,0.6,1.7s0.6,0.8,0.6,0.9c-0.1,0.1-0.5,0.3-0.4,0.6
		c0,0.3,0.6,0.5,0.6,0.9s-1.7,2-1.8,2.9c-0.1,0.9,0.8,1.7,1,2.2c0.2,0.5,0.4,1.4,0.3,2.1c0,0.7-0.2,1.2,0.2,1.6
		c0.4,0.4,0.9,1,0.9,1.3c0,0.2-0.3,0.5-0.3,0.9c0,0.4,0.6,0.7,1.2,0.3s1.3-0.6,1.6-0.6c0.4,0,2.8-2,3-2.4c0.3-0.4,0.6-1.4,0.6-1.6
		c0-0.2,0.9-1,1.3-1.2c0.3-0.2,0.4-0.7,0.4-1.2c-0.1-0.4,2.2-2.6,2.6-3.4s0.4-2,0.2-3.1c-0.2-1.1,0-2.6,1-3.9
		c1.1-1.3,2.4-3.4,2.8-4.3c0.5-0.9,0.6-2.1,0.7-2.5c0.1-0.4-0.1-0.7-0.7-0.3c-0.6,0.4-1.5,0.7-1.7,0.4c-0.2-0.3-0.1-1-0.3-1.3
		c-0.1-0.3-0.6-0.7-1-1.2c-0.4-0.5-0.6-1.3-0.7-1.5c0-0.3-0.3-0.2-0.5-0.6c-0.2-0.4-0.4-1.4-0.4-1.7c0-0.3-0.6-1-0.8-1.5
		c-0.2-0.5-0.5-1.2-0.7-1.5s-0.6-0.8-0.6-1.1S82.7,29.6,82.6,29.3z"/>
	<path class="st0" d="M81.4,28.4c0.3-0.5,0.5-0.4,0.8-0.1c0.3,0.2,1.2,0.8,1.3,0s-0.2-1.6-0.1-1.9s-0.1-0.9-0.4-1s-0.7,0.2-0.8,0.5
		c-0.2,0.3-0.5,0-0.6-0.3c-0.1-0.3-0.6-0.3-0.8-0.1c-0.2,0.2-1,0.1-1.3-0.6c-0.3-0.7-0.4-1.1-0.4-1.3c0-0.2,0.6,0.1,0.9-0.2
		c0.3-0.3,1-0.5,1.3-0.5c0.3,0,1,0.2,1.4,0.5c0.4,0.3,1.3,1,1.6,0.7s0.4-0.7,0.2-1.1c-0.2-0.4-1-0.7-1.2-0.9
		c-0.2-0.2,0.2-0.4,0.6-0.4c0.4,0,1.8,0.4,1.7,0.7c-0.1,0.2,0.6,1,0.8,1.3s0.6,1.1,0.6,1.7c0,0.6,1,1.9,1.5,1.9
		c0.5-0.1,0.8-0.5,0.7-0.9s-0.7-0.6-0.7-0.8c0-0.2,0.5-0.3,0.4-0.6c0-0.3-0.8-0.8-1-0.9c-0.3-0.2-0.6-0.4-0.8-0.7
		c-0.2-0.3-0.2-0.4,0.4-0.3s0.2-0.5,0-0.8s-0.6-0.3-0.4-0.6c0.2-0.3,1.8-1.6,2.1-1.2c0.2,0.4,1.9,3.2,2.2,4c0.4,0.8,1.5,3.7,1.7,4.3
		c0.2,0.6,1.1,4.4,1.2,5.1c0.1,0.7,0.5,3.8,0.5,4.6c0,0.8-0.1,3.7-0.1,3.7s-0.2-0.3-0.2-1.3s-0.2-3.2-0.3-4s-0.5-1.6-0.7-2.3
		c-0.2-0.7-0.2-1.3-0.5-1.4c-0.2-0.1-1.3,0-1.6-0.3c-0.3-0.3-0.2-0.9-0.4-1c-0.3-0.1-1,0.2-1.2-0.3c-0.2-0.5-0.4-1.4-0.9-1.7
		c-0.5-0.3-1.1-0.4-1,0.4c0.1,0.8,0.8,1.2,0.9,1.5c0.1,0.3,0.2,1,0.6,1.2c0.4,0.2,0.8,0.6,0.9,0.3s0.4-0.4,0.8,0.3
		c0.4,0.7,0.8,1.2,0.2,2.4s-1.9,2.2-2.5,2.6c-0.6,0.4-1.2,0.7-1.4-0.1s0-1.5-0.3-1.7s-0.7-0.9-0.9-1.4c-0.2-0.5-0.5-0.5-0.6-1
		s-0.3-1.2-0.7-1.7c-0.4-0.6-1.2-1.7-1.2-2c0-0.3,0.2-0.7-0.2-0.8s-0.7-0.2-1,0.1C82.2,29.8,81.4,28.4,81.4,28.4z"/>
	<path class="st0" d="M87.3,22c-0.5-0.3-1-0.4-1.3-0.2c-0.3,0.2-0.6,0.3-0.4,0.8s-0.9,0.8-1.1,0.5c-0.2-0.4-0.8-0.7-1.1-0.9
		s-0.6-0.4-0.6-0.6c0-0.3,0.1-0.9-0.1-1.1c-0.2-0.2-0.8,0-1.1,0.1c-0.3,0.2-0.2,0.4,0,0.5c0.2,0.1,0.4,0.5,0.1,0.5s-0.7-0.2-0.9-0.6
		s-0.2-0.6-0.6-0.8c-0.4-0.2-0.8,0.4-1.1,1c-0.3,0.6,0.1,1.2,0.3,1.5c0.2,0.4-0.5,0.3-0.8,0.2c-0.3-0.1-0.3-0.4-0.6-0.3
		c-0.3,0.1-0.4,0.4-0.5,0.4s-0.8,0-0.5,0.4s0.7,0.2,0.7,0.6s0,0.9-0.2,0.9c-0.2,0-0.6-0.1-0.7-0.3c-0.1-0.2,0.2-0.4,0.4-0.4
		c0.2,0,0.2-0.5-0.1-0.5c-0.3-0.1-0.6,0.1-1-0.4c-0.4-0.5-0.2-1.1-0.5-1.5c-0.3-0.5-1.6-0.9-2.3-1.6c-0.7-0.7-1-0.6-1.1-0.4
		c-0.1,0.2-0.2,0.5,0.2,1s1.2,1.1,1.6,1.3c0.4,0.2,0.8,0.3,1.1,0.5c0.3,0.2,0.1,0.3-0.3,0.3c-0.4,0-0.3,0.1-0.2,0.4
		s-0.2,0.7-0.3,0.6c-0.2,0,0.1-0.4-0.2-0.8c-0.3-0.4-0.7-0.7-1.1-0.8s-1.1-0.6-1.2-0.9s-0.4-0.8-0.7-1.1s-0.6-0.1-0.9,0.2
		c-0.2,0.3-1.3,0.4-1.8,0.3c-0.5-0.1-0.6,0.3-0.5,0.4c0.1,0.2,0,0.4-0.3,0.5c-0.3,0.2-0.8,0.2-1,0.6c-0.2,0.4-0.5,1.2-0.8,1.4
		s-1,0.4-1.9,0.4c-0.9,0-2-0.3-2.2-0.7c-0.2-0.4-0.2-1.6,0.2-1.9c0.3-0.3,0.2-0.3,0.1-0.5c-0.1-0.2,0-0.6,0.3-0.8
		c0.3-0.2,0.8-0.2,1.6,0.1c0.8,0.3,1,0.3,1.7,0.1c0.7-0.3,0-1.5-0.2-1.7c-0.3-0.2-0.9-0.3-1.1-0.6s0.2-0.4,0.6-0.3s0.8-0.3,1.4-0.4
		c0.6-0.1,1.4-0.5,1.5-0.7s1-0.6,1.1-0.8c0.1-0.2,0.8-0.2,1.1-0.2c0.3,0,0.5-0.1,0.3-0.3c-0.2-0.2-0.3-0.6-0.2-0.9
		c0.1-0.3,0.6-0.4,0.6,0.1c0,0.5,0.2,0.8,0.3,1c0.2,0.2,0.5,0.2,0.9,0.2c0.3,0,0.6,0.4,0.8,0.4s0.4-0.4,0.8-0.4c0.4,0,0.8,0.4,1,0.4
		c0.2,0,0.7-0.1,0.8-0.4c0-0.3-0.5-0.3-0.4-0.6c0.1-0.3,0.5,0,0.7,0.2c0.3,0.1,0.5,0,0.4-0.3c0-0.3-0.2-0.6,0.1-0.6s0.6,0.4,0.9,0.4
		c0.3,0,0.5-0.3,0.3-0.6c-0.2-0.3-1-0.4-1.2-0.3s-0.8,0-1.2-0.3c-0.4-0.2-0.8-0.3-0.6-0.5c0.2-0.2,0.9-0.4,0.9-0.8
		c0-0.4-0.7-0.7-1.1-0.5c-0.4,0.2-0.3,0.6-0.6,0.7c-0.3,0.1-0.9,0.1-0.8,0.5s0.9,0.4,0.9,0.8c0,0.4-0.5,0.4-0.6,0.7
		c-0.1,0.2-0.4,0.5-0.8,0.5c-0.4,0-0.6-0.4-0.8-0.6s-0.3-0.4-0.5-0.6c-0.1-0.2-0.3-0.5-0.5-0.4c-0.2,0.2-0.1,0.4-0.6,0.5
		s-1.1-0.4-1.3-0.8c-0.2-0.4-0.2-0.5,0-0.8c0.2-0.3,0.8-0.6,1.4-0.5s1.1-0.4,1.3-0.6c0.2-0.2,0.3-0.6,1.4-0.7c1.1-0.2,2.4,0.2,3,0.5
		c0.6,0.3,1.1,0.8,1.7,0.9c0.6,0.1,1.2,0.2,1.5,0.5s0.8,0.7,0.4,0.8s-0.6-0.2-1-0.4c-0.3-0.2-0.6-0.4-1-0.5s-0.6,0.1,0.1,0.6
		c0.7,0.4,1.2,1,1.4,1.2c0.2,0.1,0.9-0.1,0.9-0.3c0.1-0.2,0.4-0.6,0.6-0.6s0.4,0.6,1,0.6s1.4,0.4,2.3,1s1.7,1.5,2,1.8
		c0.2,0.3,1,0.6,1,0.6s1.6,2.2,1.8,2.5c0.2,0.3,0.6,0.9,0.6,0.9l-1.3,1.3L87.3,22z"/>
	<path class="st0" d="M45.7,8.7c0.3-0.3,1-0.5,1.4-0.6c0.4-0.1,1.6-0.6,2.1-0.8c0.5-0.2,2.6-0.4,3.1-0.4c0.5,0,2.1-0.2,2.8-0.4
		c0.7-0.2,1.6-0.1,2.4-0.1c0.8,0,2.4,0,2.7,0s0.6,0.1,0.9,0.2c0.3,0.1,1.9,0,1.7,0.3c-0.2,0.2-1.7,0-2.1,0.4
		c-0.4,0.3-0.9,0.9-1.4,1.1s-1.1,0-1.1,0.2c0,0.2,0.9,0.3,0.6,0.5c-0.3,0.2-0.7-0.3-1.1-0.2c-0.4,0.1-0.9,0.5-0.7,0.5
		c0.2,0.1,0.9-0.5,1,0s-0.7,0.5-1.6,0.5c-0.9,0-1.2-0.3-1.6,0s-1.2,0.8-1.8,0.9c-0.6,0.1-1.6,0-1.9,0.3c-0.3,0.3-1.8,2.2-2.7,2.2
		s-1.4-0.3-1.6-1c-0.2-0.7,0.3-0.8,0.3-1c0-0.2,0.6-0.5,0.9-0.7c0.3-0.2,0.8-0.1,0.9-0.4c0-0.3-0.5-0.7-0.6-1
		c-0.1-0.3-0.5-0.6-0.8-0.5C47.1,8.5,45.2,9.3,45.7,8.7z"/>
	<path class="st0" d="M40,68.7c0.2,0.1,1.2,0.5,1.5,0.8c0.3,0.3,0,0.6-0.5,0.3c-0.5-0.3-0.7-0.6-1.3-0.9c-0.5-0.3-1.8-1.2-2.6-1.9
		s-0.9-1.5-1.1-1.7s-1.7-1.6-2.1-3c-0.4-1.4-1.3-2.7-1.3-3.2c0-0.6-0.3-0.6-0.3-1c0-0.4,0.1-1.9-1.2-3.2c-1.3-1.3-1.6-1.8-2-2.6
		c-0.4-0.9-1.1-1.9-1.1-2.3c0-0.4-0.2-1.1-0.6-1.3c-0.3-0.3-0.4-0.9-0.3-1.2c0.1-0.2,0.2-0.4-0.1-1c-0.3-0.6,0-1,0.2-1.5
		c0.2-0.5,0.6-1.7,0.5-2.2c-0.1-0.5-0.4-0.8-0.3-1.1c0-0.3,0.1-0.6-0.1-0.6s-0.4-0.7,0-0.7c0.4,0,0.3,0.5,0.4,0.7
		c0.1,0.2,0.5,0.1,0.5-0.5c0.1-0.6,0.4-0.7,0.8-1.1c0.4-0.5,0.9-0.6,0.7-0.3c-0.3,0.3-0.5,0.9-0.3,1.5c0.1,0.7,0.6,0.1,0.5-0.3
		c-0.1-0.5,0.3-1,0.5-0.9c0.2,0.2,0.5,0.7,0.9,0.8c0.4,0.1,0.9,0,1.1,0c0.2,0,0.5,0.4,0.5,0.3s0.1-0.7,0.6-0.5
		c0.5,0.1,0.4,0.7,0.2,0.7c-0.3,0,0,0.4,0.2,0.6s0.6,0.8,0.7,1.1c0.1,0.3,0.4,0.3,0.8,0.5s0.8-0.1,1,0c0.1,0.1,0.5,0,0.8,0.3
		c0.3,0.3,0.7,1,0.8,1.4c0.2,0.4,0.3,0.8,0.4,0.9c0.1,0.1,0.2,0.5-0.3,0.7c-0.5,0.2-0.9,0.8-0.9,1.2c0.1,0.4,0.6,0.3,0.8-0.1
		c0.2-0.3,0.4-0.7,0.6-0.8c0.3-0.1,0.9,0.1,0.7,0.4s-0.5,0.3-0.6,0.7c-0.1,0.4,0.6,0.5,0.7,0.1c0.2-0.3,0.3-0.9,0.8-0.7
		c0.5,0.2,0.8,0.5,0.9,0.7s-0.4,0.7,0.1,0.8s0.4-0.6,0.8-0.5c0.4,0.2,1.1,0,1.4,0.3c0.3,0.3,0.7,0.4,1,0.9s1.4,0.3,1.6,0.6
		s0.4,0.7,0.3,1.6s-0.8,1.4-0.9,1.8c-0.2,0.4-0.3,0.6-0.5,0.7c-0.2,0.1-0.4,0.2-0.4,0.9c0,0.7,0.3,1.1,0.1,2.4s-0.7,2.3-1,2.3
		c-0.3,0-0.7-0.4-0.9-0.3c-0.2,0.2-1.2,0.6-1.5,0.9c-0.2,0.3,0,0.4,0.1,0.8s-0.3,1.1-0.2,1.4c0,0.3-0.2,0.8-0.4,1.2
		s-0.6,0.6-0.9,0.4c-0.3-0.2-1.1-0.7-1.2-0.5c-0.1,0.3,0.5,0.8,0.9,1c0.4,0.3,0.5,0.8,0,0.8c-0.5-0.1-0.9-0.5-1.1-0.3
		s-0.8,0.5-0.3,0.9c0.5,0.3,0.4,0.9,0.7,1.2s0.6-0.3,0.8,0.4C39.7,68.4,39.9,68.6,40,68.7z"/>
	<path class="st0" d="M40.3,19.8c-0.1,0-0.3-0.2-0.4-0.3c-0.1,0-0.6,0.2-0.6,0c-0.1-0.2,0.8-0.7,0.9-0.9c0.1-0.2,0.3-0.3,0.4-0.4
		c0.1-0.1,0.3-0.2,0.4,0c0.1,0.2,0.6,0.1,0.8,0.3c0.1,0.2,0.5,0.7,0.1,0.7c-0.5,0-0.9,0.1-1.1,0.2S40.6,19.8,40.3,19.8z"/>
	<path class="st0" d="M39.7,13.3c-0.1-0.1-0.4-0.2-0.6,0c-0.2,0.2-0.5,0.3-0.5,0.1c-0.1-0.2,0.5-0.4,0.9-0.4s0.6-0.2,0.7-0.3
		c0.1-0.1,0.4-0.3,0.8-0.3c0.3,0,0.6-0.3,0.4-0.3c-0.2,0-0.6-0.1-0.6-0.4c0-0.3,0.4-0.4,0.6-0.5c0.2-0.2,0.6-0.3,1.1-0.3
		s0.5,0.5,0.6,0.6s0.5,0,0.5,0.2s-0.3,0.5-0.7,0.6c-0.4,0-1.2-0.4-1.1,0.1c0.1,0.5,0.2,0.6-0.1,0.8c-0.3,0.2-0.6-0.2-0.8-0.1
		c-0.2,0.1,0,0.3-0.1,0.6s-0.5,0.3-0.7,0.2C39.9,13.7,39.8,13.5,39.7,13.3z"/>
	<path class="st0" d="M41.8,16.3c-0.4,0-0.5,0.3-0.7,0.4s-0.2-0.4-0.2-0.8c0-0.4,0.1-1.1,0.2-1.3c0-0.2,0-0.6-0.2-0.3
		c-0.2,0.3-0.9,0.9-1.1,1c-0.2,0.1-0.6,0.1-0.6-0.1c-0.1-0.2,0.1-0.3,0.2-0.4c0.1-0.2,0.4-0.5-0.3-0.5c-0.7,0-1.4,0.1-1.7,0.6
		c-0.3,0.5-0.8,0.9-0.9,1.1c-0.1,0.2-0.3,0.7-0.4,0.9c-0.1,0.2-1.1,0.7-1.4,1.2c-0.2,0.4-0.6,1.1-0.7,1.3c-0.1,0.2-0.6,0.4-0.8,0.3
		c-0.2,0-0.3-0.6-0.1-0.8c0.2-0.2,0.7-0.4,0.6-0.5c0-0.2-0.8-0.2-1.2-0.1c-0.4,0-0.7,0-0.6-0.4c0.1-0.3,2.5-2.5,3.2-3
		c0.7-0.5,1.3-0.8,1.1-0.5c-0.1,0.3-0.1,0.6,0.4,0.3c0.5-0.2,0.8-0.5,0.5-0.5c-0.3,0-0.4-0.2,0-0.4c0.4-0.2,1.9-0.8,1.3-0.8
		c-0.6,0-2.9,0.9-4.4,1.9c-1.5,1-2.6,2.2-2.8,2.4c-0.2,0.2-0.3,0.4-0.8,1c-0.4,0.6-2.2,3.3-2.7,4.1C27.3,23,26.4,25,26,25.9
		c-0.4,0.9-1.2,3.4-1.4,4.3c-0.3,0.9-0.7,3.5-0.8,5c-0.1,1.5,0.2,2.3,0.4,2.4c0.2,0,0.4,0.4,0.5,0.7c0.1,0.4,0.8,0.3,0.8,0.9
		c0,0.6,0.6,1.6,0.9,2c0.3,0.4,0.6,0.8,0.6,0.4c0-0.3,0.2-0.5,0.4-0.5c0.3,0,0-0.5,0-0.5l-0.3-0.1c-0.2,0.3-0.5,0.9-0.7,0.1
		c-0.3-0.8-0.1-1.4-0.1-1.8c0.1-0.4,0.2-1.3-0.1-1.6c-0.3-0.3-0.6,0.4-0.9,0.4c-0.2,0-0.4-0.5-0.1-0.8c0.2-0.3,0.1-0.8,0.5-1.1
		s0.1-0.9-0.1-1.2c-0.2-0.2-0.3-0.1-0.5,0.5c-0.2,0.6-0.4,0.9-0.5,1.1c-0.1,0.2-0.4,0.4-0.5,0.1c-0.1-0.3-0.2-1.9,0-2.6
		c0.2-0.7,0.7-1.8,0.8-2.1c0.1-0.4,0.2-1.2,0.6-1c0.4,0.2,0.5,0.7,0.6,0.4c0.1-0.3,0.4-1.3,1.2-1.5c0.8-0.2,0.8-0.1,1.3-0.9
		c0.5-0.8,1.6-1.6,1.7-1.8c0.1-0.2,0-1,0.3-1.4c0.4-0.4,2.4-2.4,3.2-2.9c0.8-0.5,1.6-1.3,2.1-1.4c0.5-0.2,0.9-0.2,0.4,0.2
		c-0.5,0.3-0.9,0.5-0.9,0.7c0,0.2,1.2-0.4,1.6-0.6c0.4-0.3,1.1-0.5,1.1-0.7c0-0.2-0.5-0.1-0.7,0.1s-0.6,0.1-0.7-0.1
		c-0.1-0.2,0.3-0.8,0.5-0.9c0.2-0.2,0.1-0.4-0.2-0.3c-0.3,0.2-0.9,0.7-1.1,0.8c-0.2,0.2-0.6,0.4-0.6,0.1c0-0.3,1-1.3,1.7-1.5
		s1.5,0,2.1-0.2c0.6-0.2,2-0.9,2.4-1.3C42,16.7,42.2,16.3,41.8,16.3z M32,23c-0.3,0.3-0.8,0.5-0.7,0.3c0.1-0.2,0.3-0.5,0.1-0.6
		c-0.2-0.1-0.6,0.2-0.7,0.4c-0.1,0.2,0,0.3,0.1,0.5c0,0.2-0.1,0.5-0.4,0.7c-0.3,0.3-0.6,0.3-0.6,0.2c0-0.1,0.4-0.6,0.5-0.8
		c0.1-0.2,0.2-0.3,0-0.4c-0.1-0.2-0.2-0.3,0-0.4c0.1-0.2,0.2-0.4-0.2-0.1s-0.6,0.8-0.7,1.2c-0.1,0.4-0.4,0.8-0.6,0.8
		c-0.2,0-0.3-0.5,0-0.9c0.2-0.4,1.1-1.2,1.2-1.4c0.2-0.2,0.2-0.4-0.1-0.2c-0.3,0.1-0.5,0.2-0.6,0.4c-0.1,0.1-0.4,0.1-0.3-0.1
		c0.1-0.2,0.8-0.7,0.9-0.9c0.1-0.2,0.3-0.5,0.6-0.5c0.3,0,0.5,0.2,0.3,0.6c-0.2,0.5,0.1,0.6,0.2,0.4c0.1-0.2,0.3-0.4,0.6-0.3
		c0.2,0.1,0.1,0.4,0,0.5c-0.1,0.1,0,0.2,0.2,0.1c0.2-0.1,0.5-0.2,0.5,0C32.3,22.7,32.3,22.8,32,23z"/>
	<g>
		<path class="st0" d="M73.7,46c-0.1,0-0.3-0.1-0.4-0.2c-0.2-0.2-0.1-0.5,0.1-0.7c12.1-10.4,20.2-28,19.7-34.8c-0.2-2.7-1.6-4-4.4-4
			c-1.9,0-4.3,0.6-7.2,1.8c-0.1,0-0.1,0-0.2,0c-0.1,0-0.3-0.1-0.4-0.2c-0.1-0.2-0.2-0.4,0-0.6c0.2-0.2,4.1-6,12-6
			c1.5,0,3.8,0.8,5.3,2.9c1.3,1.9,2.4,5.5-0.1,12c-4.4,11.6-12.1,21-24.2,29.6C73.9,46,73.8,46,73.7,46z"/>
		<path class="st1" d="M93,1.9C93,1.9,93,1.9,93,1.9c2.8,0,9,3,4.8,14.2s-11.7,20.6-24,29.4c12.1-10.4,20.4-28.1,19.9-35.2
			c-0.2-3.5-2.4-4.5-4.9-4.5c-2.6,0-5.7,1.2-7.4,1.9C81.4,7.6,85.2,1.9,93,1.9 M93,0.9L93,0.9L93,0.9c-8.2,0-12.3,5.9-12.5,6.2
			c-0.2,0.4-0.2,0.9,0.1,1.2c0.2,0.2,0.5,0.4,0.8,0.4c0.1,0,0.3,0,0.4-0.1c2.8-1.2,5.2-1.8,7-1.8c2.5,0,3.7,1.1,3.9,3.6
			c0.5,6.7-7.5,24.1-19.5,34.4c-0.4,0.3-0.5,1-0.1,1.4c0.2,0.3,0.5,0.4,0.8,0.4c0.2,0,0.4-0.1,0.6-0.2c12.2-8.6,19.9-18.1,24.4-29.8
			c2.5-6.7,1.4-10.5,0-12.5C97.1,1.7,94.6,0.9,93,0.9L93,0.9z"/>
	</g>
	<g>
		<path class="st0" d="M21,71.5c-0.5,0-0.8-0.2-0.9-0.5c-0.1-0.4-0.1-0.9,4.3-2.4c6.4-2.2,17.2-7.3,25.6-13.1l1.3-0.9
			c9.3-6.5,14-9.6,15.1-9.6c0.3,0,0.5,0.1,0.6,0.4c0.2,0.4,0,0.9-1.6,2.6l-1.3,1.4C57.4,56.6,51,63.5,35.5,68
			C27.7,70.3,22.6,71.5,21,71.5z"/>
		<path class="st1" d="M66.4,45.4c0.4,0,0,0.6-1.4,2.2c-8.7,8.1-14.1,13.2-30,19.2C26.3,69.3,22.2,71,21,71c-1.2,0,0.4-0.9,3.6-2
			c7-2.4,17.8-7.7,25.7-13.2C56.2,51.7,65.1,45.4,66.4,45.4 M66.4,44.4L66.4,44.4c-1.3,0-5.6,2.9-15.4,9.7l-1.3,0.9
			c-8.3,5.8-19,10.8-25.4,13.1c-4.4,1.5-4.8,2.1-4.6,2.9c0,0.3,0.3,0.9,1.4,0.9c1.6,0,6.8-1.3,14.6-3.5C51.3,63.9,57.7,57,64.5,49.7
			c0.4-0.5,0.9-0.9,1.3-1.4c1.7-1.8,2-2.5,1.7-3.2C67.3,44.7,66.9,44.4,66.4,44.4L66.4,44.4z"/>
	</g>
	<g>
		<path class="st0" d="M3.7,66.3c-1.6,0-2.1-0.7-2.2-1.4C0.9,61.5,11.5,51.6,15,50.2c0.1,0,0.1,0,0.2,0c0.2,0,0.3,0.1,0.4,0.2
			c0.1,0.2,0.1,0.5-0.1,0.6c-1.7,1.8-6.1,6.5-5.9,8.3c0,0.2,0.1,0.3,0.3,0.4c0,0,0.1,0,0.3,0c4.1,0,24.8-8.9,25-9c0.1,0,0.1,0,0.2,0
			c0.2,0,0.3,0.1,0.4,0.2c0.1,0.2,0.1,0.5-0.1,0.6c-0.2,0.2-6,6-27.4,13.6C6.4,65.9,4.8,66.3,3.7,66.3z"/>
		<path class="st1" d="M15.2,50.7L15.2,50.7 M15.2,50.7C12,54,7.6,58.9,9.7,60.1c0.1,0.1,0.3,0.1,0.6,0.1c4.3,0,25.2-9,25.2-9
			s-5.7,5.9-27.2,13.5c-2.1,0.7-3.6,1.1-4.6,1.1C-2.8,65.8,10.9,52.3,15.2,50.7 M15.2,49.7c0,0-0.1,0-0.1,0c-0.1,0-0.2,0-0.3,0.1
			C11.3,51.1,0.3,61,1,65c0.1,0.5,0.6,1.8,2.7,1.8c1.2,0,2.8-0.4,4.9-1.1C30.1,58,36,52.2,36.2,51.9c0.3-0.3,0.4-0.9,0.1-1.3
			c-0.2-0.3-0.5-0.4-0.8-0.4c-0.1,0-0.3,0-0.4,0.1c-5.8,2.5-21.5,8.9-24.8,8.9c0,0-0.1,0-0.1,0c-0.2-0.4,0.2-2,5.7-7.8
			c0.2-0.2,0.3-0.4,0.3-0.7C16.2,50.1,15.7,49.7,15.2,49.7C15.2,49.7,15.2,49.7,15.2,49.7L15.2,49.7z"/>
	</g>
</g>
</svg>
