<?xml version="1.0" encoding="utf-8"?>
<!-- Generator: Adobe Illustrator 17.1.0, SVG Export Plug-In . SVG Version: 6.00 Build 0)  -->
<!DOCTYPE svg PUBLIC "-//W3C//DTD SVG 1.1//EN" "http://www.w3.org/Graphics/SVG/1.1/DTD/svg11.dtd">
<svg version="1.1" id="Слой_1" xmlns="http://www.w3.org/2000/svg" xmlns:xlink="http://www.w3.org/1999/xlink" x="0px" y="0px"
	 width="97px" height="73px" viewBox="0 0 97 73" style="enable-background:new 0 0 97 73;" xml:space="preserve">
<style type="text/css">
	.st0{fill:#C88366;}
	.st1{fill:#FFFFFF;}
</style>
<g id="быстрая_запись_1_">
	<g>
		<path class="st0" d="M94.3,3.2L74.4,68.6c-0.2,0.7-1,1.2-1.5,1.2l-51.4,0L41.3,4.4c0.2-0.7,1-1.2,1.5-1.2H94.3 M94.7,0.7H42.9
			c-1.7,0-3.4,1.4-3.9,3L19,69.3c-0.5,1.7,0.4,3,2.1,3h51.8c1.7,0,3.4-1.4,3.9-3L96.8,3.7C97.3,2,96.3,0.7,94.7,0.7L94.7,0.7z"/>
		<polygon class="st0" points="81.2,24.1 42.1,24.1 44.8,15.1 84,15.1 		"/>
		<polygon class="st0" points="79.2,30.8 40,30.8 41,27.5 80.2,27.5 		"/>
		<polygon class="st0" points="77.4,36.9 38.2,36.9 39.2,33.6 78.4,33.6 		"/>
		<polygon class="st0" points="75.5,42.9 36.4,42.9 37.4,39.6 76.5,39.6 		"/>
		<polygon class="st0" points="73.7,48.9 34.5,48.9 35.5,45.6 74.7,45.6 		"/>
	</g>
	<polygon class="st0" points="18.9,0.7 45.2,0.7 40.4,3.8 	"/>
	<polygon class="st0" points="18.9,10.7 37.9,10.7 37.3,13.5 	"/>
	<polygon class="st0" points="18.9,20.7 35.5,20.7 34.5,23.3 	"/>
	<polygon class="st0" points="18.9,30.7 32.4,30.7 31.7,33 	"/>
	<g>
		<g>
			
				<rect x="16.8" y="19.5" transform="matrix(-0.7197 0.6943 -0.6943 -0.7197 63.6347 56.662)" class="st1" width="7.2" height="43.3"/>
			<path class="st0" d="M7.9,23.8l29.4,30.5l-4.5,4.3L3.4,28.1L7.9,23.8 M7.9,22.4l-0.6-0.4l-5.9,5.4L2,28.1L32.8,60h1.1l4.8-4.7v-1
				L7.9,22.4L7.9,22.4z"/>
		</g>
		<path class="st0" d="M7.9,22.4L2,28.1l-1.3-1.4c-0.8-0.8-0.7-2.1,0.1-2.8l3-2.9c0.8-0.8,2.1-0.7,2.8,0.1L7.9,22.4z"/>
		<polygon class="st0" points="32.8,60 39.8,61.3 38.7,54.3 		"/>
	</g>
</g>
</svg>
