<?xml version="1.0" encoding="utf-8"?>
<!-- Generator: Adobe Illustrator 17.1.0, SVG Export Plug-In . SVG Version: 6.00 Build 0)  -->
<!DOCTYPE svg PUBLIC "-//W3C//DTD SVG 1.1//EN" "http://www.w3.org/Graphics/SVG/1.1/DTD/svg11.dtd">
<svg version="1.1" id="Слой_1" xmlns="http://www.w3.org/2000/svg" xmlns:xlink="http://www.w3.org/1999/xlink" x="0px" y="0px"
	 width="55px" height="55px" viewBox="0 0 55 55" style="enable-background:new 0 0 55 55;" xml:space="preserve">
<style type="text/css">
	.st0{opacity:0.18;clip-path:url(#SVGID_2_);fill:url(#SVGID_3_);}
	.st1{clip-path:url(#SVGID_2_);fill:none;stroke:#C88366;stroke-miterlimit:10;}
	.st2{opacity:0.18;clip-path:url(#SVGID_2_);fill:url(#SVGID_4_);}
	.st3{opacity:0.5;clip-path:url(#SVGID_2_);fill:none;stroke:#C88366;stroke-miterlimit:10;}
	.st4{fill:#C88366;}
</style>
<g id="анализ">
	<g>
		<defs>
			<path id="SVGID_1_" d="M44.8,52.2H8c-4.1,0-7.3-3.3-7.3-7.3V8.1C0.7,4.1,4,0.8,8,0.8h36.7c4.1,0,7.3,3.3,7.3,7.3v36.7
				C52.1,48.9,48.8,52.2,44.8,52.2z"/>
		</defs>
		<clipPath id="SVGID_2_">
			<use xlink:href="#SVGID_1_"  style="overflow:visible;"/>
		</clipPath>
		<linearGradient id="SVGID_3_" gradientUnits="userSpaceOnUse" x1="26.2055" y1="53" x2="26.2055" y2="6.2988">
			<stop  offset="0" style="stop-color:#E2B888"/>
			<stop  offset="0.2246" style="stop-color:#AD6B2B"/>
			<stop  offset="0.6796" style="stop-color:#B85C2B"/>
			<stop  offset="1" style="stop-color:#BD7558"/>
		</linearGradient>
		<polygon class="st0" points="0.4,53 52,53 52,6.3 39.1,27.6 30.8,23.4 20,39.5 11.3,35.3 		"/>
		<polyline class="st1" points="0.6,52.2 11.3,34.9 20,39.5 30.9,23.4 39.3,27.6 52.1,6.3 		"/>
		<linearGradient id="SVGID_4_" gradientUnits="userSpaceOnUse" x1="26.2055" y1="53" x2="26.2055" y2="29.4498">
			<stop  offset="0" style="stop-color:#E2B888"/>
			<stop  offset="0.2246" style="stop-color:#AD6B2B"/>
			<stop  offset="0.6796" style="stop-color:#B85C2B"/>
			<stop  offset="1" style="stop-color:#BD7558"/>
		</linearGradient>
		<polygon class="st2" points="52,53 52,29.4 45.7,42.3 39.3,38.7 32.8,44.6 27.8,42.5 24.4,46.3 15.8,44.9 7.8,48.3 0.7,42.5 
			0.4,53 		"/>
		<polyline class="st3" points="0.7,42.3 7.8,48.3 15.8,44.9 24.4,46.3 27.8,42.5 32.8,44.6 39.3,38.7 45.7,42.3 52.1,29.4 		"/>
	</g>
	<circle class="st4" cx="52.1" cy="29.4" r="1.9"/>
	<circle class="st4" cx="52.1" cy="6.7" r="1.9"/>
</g>
</svg>
