<?xml version="1.0" encoding="utf-8"?>
<!-- Generator: Adobe Illustrator 17.1.0, SVG Export Plug-In . SVG Version: 6.00 Build 0)  -->
<!DOCTYPE svg PUBLIC "-//W3C//DTD SVG 1.1//EN" "http://www.w3.org/Graphics/SVG/1.1/DTD/svg11.dtd">
<svg version="1.1" id="Слой_1" xmlns="http://www.w3.org/2000/svg" xmlns:xlink="http://www.w3.org/1999/xlink" x="0px" y="0px"
	 width="55px" height="55px" viewBox="0 0 55 55" style="enable-background:new 0 0 55 55;" xml:space="preserve">
<style type="text/css">
	.st0{fill:#C88366;}
	.st1{clip-path:url(#SVGID_2_);fill:none;stroke:#FFFFFF;stroke-miterlimit:10;}
	.st2{clip-path:url(#SVGID_2_);fill:#AF410A;}
	.st3{clip-path:url(#SVGID_2_);fill:#DA6500;}
	.st4{clip-path:url(#SVGID_2_);fill:#D37C24;}
	.st5{clip-path:url(#SVGID_2_);fill:#FFB86B;}
</style>
<g id="статистика">
	<g>
		<g>
			<path class="st0" d="M27.4,12.3c8.4,0,15.2,6.8,15.2,15.2s-6.8,15.3-15.2,15.3S12.2,36,12.2,27.6S19,12.3,27.4,12.3 M27.4,1.3
				C12.9,1.3,1.2,13.1,1.2,27.6s11.8,26.3,26.2,26.3s26.2-11.8,26.2-26.3S41.9,1.3,27.4,1.3L27.4,1.3z"/>
		</g>
	</g>
	<g>
		<defs>
			<circle id="SVGID_1_" cx="27.4" cy="27.6" r="26.2"/>
		</defs>
		<clipPath id="SVGID_2_">
			<use xlink:href="#SVGID_1_"  style="overflow:visible;"/>
		</clipPath>
		<line class="st1" x1="54.6" y1="35.5" x2="-1.2" y2="20.6"/>
		<line class="st1" x1="-2" y1="28.2" x2="56" y2="28.2"/>
		<line class="st1" x1="-1.2" y1="35.5" x2="54.6" y2="20.6"/>
		<line class="st1" x1="1.7" y1="42.5" x2="51.7" y2="13.6"/>
		<line class="st1" x1="6.3" y1="48.4" x2="47.1" y2="7.6"/>
		<line class="st1" x1="12.3" y1="53" x2="41.2" y2="3"/>
		<line class="st1" x1="19.3" y1="55.9" x2="34.2" y2="0.1"/>
		<line class="st1" x1="26.5" y1="56.7" x2="26.5" y2="-1.3"/>
		<line class="st1" x1="34.2" y1="55.9" x2="19.3" y2="0.1"/>
		<line class="st1" x1="41.2" y1="53" x2="12.3" y2="3"/>
		<line class="st1" x1="47.1" y1="48.4" x2="6.3" y2="7.6"/>
		<line class="st1" x1="51.7" y1="42.5" x2="1.7" y2="13.6"/>
		<polygon class="st2" points="27,27.6 27,0.9 46.6,3 53.9,20.4 		"/>
		<polygon class="st3" points="28.3,28 52.7,34.7 57.2,30.7 56,23.2 52.9,21.4 		"/>
		<polygon class="st4" points="52.5,35.3 27.4,28.5 40.2,50.5 48.9,49.3 54.2,41.1 		"/>
		<polygon class="st5" points="39.5,50.9 27.8,30.4 33.8,53 35.8,54.8 		"/>
	</g>
</g>
</svg>
