<?xml version="1.0" encoding="utf-8"?>
<!-- Generator: Adobe Illustrator 17.1.0, SVG Export Plug-In . SVG Version: 6.00 Build 0)  -->
<!DOCTYPE svg PUBLIC "-//W3C//DTD SVG 1.1//EN" "http://www.w3.org/Graphics/SVG/1.1/DTD/svg11.dtd">
<svg version="1.1" id="Слой_1" xmlns="http://www.w3.org/2000/svg" xmlns:xlink="http://www.w3.org/1999/xlink" x="0px" y="0px"
	 width="55px" height="55px" viewBox="0 0 55 55" style="enable-background:new 0 0 55 55;" xml:space="preserve">
<style type="text/css">
	.st0{fill:none;stroke:#C88366;stroke-miterlimit:10;}
	.st1{fill:#C88366;}
</style>
<g id="история_расходов">
	<path class="st0" d="M46.4,54H8.6C4.4,54,1,50.6,1,46.4V8.6C1,4.4,4.4,1,8.6,1h37.9C50.6,1,54,4.4,54,8.6v37.9
		C54,50.6,50.6,54,46.4,54z"/>
	<g>
		<g>
			<rect x="23" y="8" class="st1" width="23" height="4"/>
			<rect x="9" y="8" class="st1" width="4" height="2"/>
			<rect x="16" y="8" class="st1" width="4" height="2"/>
		</g>
	</g>
	<g>
		<rect x="23" y="14" class="st1" width="23" height="4"/>
		<rect x="9" y="14" class="st1" width="4" height="2"/>
		<rect x="16" y="14" class="st1" width="4" height="2"/>
	</g>
	<g>
		<rect x="23" y="20" class="st1" width="23" height="4"/>
		<rect x="9" y="20" class="st1" width="4" height="2"/>
		<rect x="16" y="20" class="st1" width="4" height="2"/>
	</g>
	<g>
		<rect x="23" y="26" class="st1" width="23" height="4"/>
		<rect x="9" y="26" class="st1" width="4" height="2"/>
		<rect x="16" y="26" class="st1" width="4" height="2"/>
	</g>
	<g>
		<g>
			<rect x="23" y="32" class="st1" width="23" height="4"/>
			<rect x="9" y="32" class="st1" width="4" height="2"/>
			<rect x="16" y="32" class="st1" width="4" height="2"/>
		</g>
	</g>
	<g>
		<rect x="23" y="38" class="st1" width="23" height="4"/>
		<rect x="9" y="38" class="st1" width="4" height="2"/>
		<rect x="16" y="38" class="st1" width="4" height="2"/>
	</g>
	<g>
		<rect x="23" y="44" class="st1" width="23" height="4"/>
		<rect x="9" y="44" class="st1" width="4" height="2"/>
		<rect x="16" y="44" class="st1" width="4" height="2"/>
	</g>
</g>
</svg>
