<?xml version="1.0" encoding="utf-8"?>
<!-- Generator: Adobe Illustrator 17.1.0, SVG Export Plug-In . SVG Version: 6.00 Build 0)  -->
<!DOCTYPE svg PUBLIC "-//W3C//DTD SVG 1.1//EN" "http://www.w3.org/Graphics/SVG/1.1/DTD/svg11.dtd">
<svg version="1.1" id="Слой_1" xmlns="http://www.w3.org/2000/svg" xmlns:xlink="http://www.w3.org/1999/xlink" x="0px" y="0px"
	 width="87px" height="72px" viewBox="0 0 87 72" style="enable-background:new 0 0 87 72;" xml:space="preserve">
<style type="text/css">
	.st0{fill:#FFFFFF;}
	.st1{fill:#C88366;}
</style>
<g id="картинки_1_">
	<g>
		<g>
			<path class="st0" d="M74.5,55.7c-0.1,0-0.3,0-0.4,0L37,48.3c-0.5-0.1-1-0.4-1.3-0.9c-0.3-0.5-0.4-1-0.3-1.5l8.6-43
				c0.2-0.9,1-1.6,2-1.6c0.1,0,0.3,0,0.4,0l37.1,7.4c0.5,0.1,1,0.4,1.3,0.9c0.3,0.5,0.4,1,0.3,1.5l-8.6,43
				C76.3,55.1,75.4,55.7,74.5,55.7z"/>
		</g>
		<path class="st1" d="M45.9,2.3c0.1,0,0.1,0,0.2,0l37.1,7.4c0.3,0.1,0.5,0.3,0.6,0.4c0.1,0.1,0.2,0.4,0.1,0.7l-8.6,43
			c-0.1,0.5-0.5,0.8-1,0.8c-0.1,0-0.1,0-0.2,0l-37.1-7.4c-0.5-0.1-0.9-0.6-0.8-1.2l8.6-43C45.1,2.6,45.5,2.3,45.9,2.3 M45.9,0.2
			c-1.4,0-2.7,1-3,2.5l-8.6,43c-0.3,1.7,0.8,3.3,2.4,3.6l37.1,7.4c0.2,0,0.4,0.1,0.6,0.1c1.4,0,2.7-1,3-2.5l8.6-43
			c0.3-1.7-0.8-3.3-2.4-3.6L46.5,0.3C46.3,0.2,46.1,0.2,45.9,0.2L45.9,0.2z"/>
		<path class="st1" d="M74.3,41.6l-32.1-6.4c-0.6-0.1-1.1-0.8-0.9-1.4l5.5-27.8c0.1-0.6,0.8-1.1,1.4-0.9l32.1,6.4
			c0.6,0.1,1.1,0.8,0.9,1.4l-5.5,27.8C75.6,41.3,74.9,41.8,74.3,41.6z"/>
		<polygon class="st0" points="76.5,36.7 69.6,26.9 63.4,29.6 55.7,16.1 43.2,23.9 41,35 75.5,41.9 		"/>
		<circle class="st0" cx="71.6" cy="16.6" r="3.1"/>
		<path class="st1" d="M47.9,5.8C47.9,5.8,48,5.8,47.9,5.8l32.2,6.4c0.3,0.1,0.4,0.3,0.4,0.6L75,40.6c0,0.2-0.3,0.4-0.5,0.4
			c0,0-0.1,0-0.1,0l-32.1-6.4c-0.3-0.1-0.4-0.3-0.4-0.6l5.5-27.8C47.5,6,47.7,5.8,47.9,5.8 M47.9,5.1c-0.6,0-1.1,0.4-1.2,1
			l-5.5,27.8c-0.1,0.6,0.3,1.3,0.9,1.4l32.1,6.4c0.1,0,0.2,0,0.2,0c0.6,0,1.1-0.4,1.2-1l5.5-27.8c0.1-0.6-0.3-1.3-0.9-1.4L48.1,5.1
			C48.1,5.1,48,5.1,47.9,5.1L47.9,5.1z"/>
	</g>
	<g>
		<g>
			<path class="st0" d="M8.3,59.6c-1,0-1.9-0.8-2-1.8L2,14.1C1.9,13,2.7,12,3.8,11.9l37.6-3.7c0.1,0,0.1,0,0.2,0c1,0,1.9,0.8,2,1.8
				l4.3,43.7c0.1,1.1-0.7,2.1-1.8,2.2L8.5,59.6C8.4,59.6,8.3,59.6,8.3,59.6z"/>
		</g>
		<path class="st1" d="M41.6,9.2c0.5,0,0.9,0.4,1,0.9l4.3,43.7c0.1,0.5-0.3,1-0.9,1.1L8.4,58.5c0,0-0.1,0-0.1,0
			c-0.5,0-0.9-0.4-1-0.9L3,14c0-0.4,0.1-0.6,0.2-0.7c0.1-0.1,0.3-0.3,0.7-0.4L41.6,9.2C41.6,9.2,41.6,9.2,41.6,9.2 M41.6,7.1
			c-0.1,0-0.2,0-0.3,0L3.7,10.8C2,11,0.8,12.5,0.9,14.2l4.3,43.7c0.2,1.6,1.5,2.8,3.1,2.8c0.1,0,0.2,0,0.3,0l37.6-3.7
			c1.7-0.2,2.9-1.7,2.8-3.4L44.7,9.9C44.5,8.3,43.2,7.1,41.6,7.1L41.6,7.1z"/>
		<path class="st1" d="M42.2,42.4L9.6,45.6c-0.7,0.1-1.2-0.4-1.3-1.1L5.6,16.3C5.5,15.6,6,15,6.6,15l32.6-3.2
			c0.7-0.1,1.2,0.4,1.3,1.1l2.8,28.2C43.4,41.7,42.9,42.3,42.2,42.4z"/>
		<polygon class="st0" points="42.9,37 33.5,29.6 28.3,34 17,23.3 7.3,34.4 8.4,45.7 43.4,42.3 		"/>
		<circle class="st0" cx="32.5" cy="19.2" r="3.1"/>
		<path class="st1" d="M39.4,12.5c0.3,0,0.5,0.2,0.5,0.5l2.8,28.2c0,0.3-0.2,0.5-0.4,0.5L9.6,44.9c0,0,0,0,0,0
			c-0.3,0-0.5-0.2-0.5-0.5L6.3,16.2c0-0.1,0-0.3,0.1-0.4c0.1-0.1,0.2-0.2,0.3-0.2L39.4,12.5C39.3,12.5,39.3,12.5,39.4,12.5
			 M39.4,11.8c0,0-0.1,0-0.1,0L6.6,15C6,15,5.5,15.6,5.6,16.3l2.8,28.2c0.1,0.6,0.6,1.1,1.2,1.1c0,0,0.1,0,0.1,0l32.6-3.2
			c0.7-0.1,1.1-0.7,1.1-1.3l-2.8-28.2C40.5,12.2,40,11.8,39.4,11.8L39.4,11.8z"/>
	</g>
	<g>
		<g>
			<path class="st0" d="M20.9,70.8c-1.4,0-2.4-1.1-2.4-2.4V18.5c0-1.4,1.1-2.4,2.4-2.4h42.9c1.4,0,2.4,1.1,2.4,2.4v49.8
				c0,1.4-1.1,2.4-2.4,2.4H20.9z"/>
		</g>
		<path class="st1" d="M63.8,17.1c0.8,0,1.4,0.6,1.4,1.4v49.8c0,0.8-0.6,1.4-1.4,1.4H20.9c-0.8,0-1.4-0.6-1.4-1.4V18.5
			c0-0.8,0.6-1.4,1.4-1.4H63.8 M63.8,15H20.9c-1.9,0-3.5,1.6-3.5,3.5v49.8c0,1.9,1.6,3.5,3.5,3.5h42.9c1.9,0,3.5-1.6,3.5-3.5V18.5
			C67.3,16.6,65.7,15,63.8,15L63.8,15z"/>
		<path class="st1" d="M60.9,54.9H23.7c-0.8,0-1.4-0.6-1.4-1.4V21.4c0-0.8,0.6-1.4,1.4-1.4h37.2c0.8,0,1.4,0.6,1.4,1.4v32.2
			C62.3,54.3,61.7,54.9,60.9,54.9z"/>
		<polygon class="st0" points="62.3,48.9 52.5,39.5 46.1,44 34.6,30.6 22.4,42 22.4,54.9 62.3,54.9 		"/>
		<circle class="st0" cx="52.5" cy="27.7" r="3.5"/>
		<path class="st1" d="M60.9,20.7c0.4,0,0.7,0.3,0.7,0.7v32.2c0,0.4-0.3,0.7-0.7,0.7H23.7c-0.4,0-0.7-0.3-0.7-0.7V21.4
			c0-0.4,0.3-0.7,0.7-0.7H60.9 M60.9,20H23.7c-0.8,0-1.4,0.6-1.4,1.4v32.2c0,0.8,0.6,1.4,1.4,1.4h37.2c0.8,0,1.4-0.6,1.4-1.4V21.4
			C62.3,20.6,61.7,20,60.9,20L60.9,20z"/>
	</g>
	<polygon class="st0" points="67.3,64.4 67.3,28.7 69.9,64.4 	"/>
	<polygon class="st0" points="17.4,64.4 17.4,28.7 14.7,64.4 	"/>
</g>
</svg>
