<?xml version="1.0" encoding="utf-8" ?>
<!DOCTYPE svg PUBLIC "-//W3C//DTD SVG 1.1//EN" "http://www.w3.org/Graphics/SVG/1.1/DTD/svg11.dtd">
<svg class="twitter-icon" version="1.1" onclick="parent.shareTwitter();" id="Слой_1" xmlns="http://www.w3.org/2000/svg" xmlns:xlink="http://www.w3.org/1999/xlink" x="0px" y="0px" width="30px" height="30px" viewBox="0 0 30 30" style="enable-background:new 0 0 30 30;" xml:space="preserve">
    <style type="text/css">
    .st0 {
        opacity: 0.45;
        fill: #FFFFFF;
    }
    svg:hover .st0 {
        opacity: 1;
    }
    .st0 {
        transition: opacity .4s ease;
    }
    .st1 {
        display: none;
        fill: #FFFFFF;
    }
    svg:hover {
        cursor: pointer;
    }
    </style>
    <path class="st0" d="M15,0C6.7,0,0,6.7,0,15s6.7,15,15,15s15-6.7,15-15S23.3,0,15,0z M22.4,12c0,0.2,0,0.3,0,0.5
	c0,4.9-3.7,10.4-10.4,10.4c-2.1,0-4-0.6-5.6-1.6c0.3,0,0.6,0.1,0.9,0.1c1.7,0,3.3-0.6,4.6-1.6c-1.6,0-3-1.1-3.4-2.5
	c0.2,0,0.5,0.1,0.7,0.1c0.3,0,0.7,0,1-0.1C8.3,16.8,7,15.3,7,13.5c0,0,0,0,0,0c0.5,0.3,1.1,0.4,1.7,0.5c-1-0.7-1.6-1.8-1.6-3.1
	c0-0.7,0.2-1.3,0.5-1.8c1.8,2.2,4.5,3.7,7.6,3.8C15.1,12.6,15,12.3,15,12c0-2,1.6-3.7,3.7-3.7c1.1,0,2,0.4,2.7,1.2
	c0.8-0.2,1.6-0.5,2.3-0.9c-0.3,0.9-0.9,1.6-1.6,2c0.7-0.1,1.5-0.3,2.1-0.6C23.7,10.8,23.1,11.5,22.4,12z" />
</svg>
