<?xml version="1.0" encoding="utf-8"?>
<!-- Generator: Adobe Illustrator 17.1.0, SVG Export Plug-In . SVG Version: 6.00 Build 0)  -->
<!DOCTYPE svg PUBLIC "-//W3C//DTD SVG 1.1//EN" "http://www.w3.org/Graphics/SVG/1.1/DTD/svg11.dtd">
<svg version="1.1" id="Слой_1" xmlns="http://www.w3.org/2000/svg" xmlns:xlink="http://www.w3.org/1999/xlink" x="0px" y="0px"
	 width="26px" height="26px" viewBox="0 0 26 26" style="enable-background:new 0 0 26 26;" xml:space="preserve">
<style type="text/css">
	.st0{fill:#B20E28;}
	.st1{opacity:0.6;}
	.st2{fill:none;stroke:#FFFFFF;stroke-miterlimit:10;}
	.st3{display:none;opacity:0.6;}
	.st4{display:inline;fill:#FFFFFF;}
</style>
<rect y="0" class="st0" width="26" height="26"/>
<g class="st1">
	<path class="st2" d="M16.1,20.2H9.5v-5c0-1.6,1.4-2.9,3.2-2.9h0.3c1.8,0,3.2,1.3,3.2,2.9V20.2z"/>
	<circle class="st2" cx="12.8" cy="7.7" r="2.5"/>
</g>
<g class="st3">
	<rect x="6" y="11.9" class="st4" width="13.6" height="8.8"/>
	<path class="st4" d="M14.1,7.2c0.9,0,1.7,0.6,1.7,1.4v5.9c0,0.8-0.7,1.4-1.7,1.4h-2.6c-0.9,0-1.7-0.6-1.7-1.4V8.6
		c0-0.8,0.7-1.4,1.7-1.4H14.1 M14.1,4.7h-2.6c-2.3,0-4.1,1.7-4.1,3.9v5.9c0,2.2,1.9,3.9,4.1,3.9h2.6c2.3,0,4.1-1.7,4.1-3.9V8.6
		C18.2,6.4,16.3,4.7,14.1,4.7L14.1,4.7z"/>
</g>
</svg>
