<?xml version="1.0" encoding="utf-8"?>
<!DOCTYPE svg PUBLIC "-//W3C//DTD SVG 1.1//EN" "http://www.w3.org/Graphics/SVG/1.1/DTD/svg11.dtd">
<svg version="1.1" baseProfile="full" 
	xmlns="http://www.w3.org/2000/svg"
	xmlns:xlink="http://www.w3.org/1999/xlink"
	xmlns:ev="http://www.w3.org/2001/xml-events"
	width="27px" height="21px">
<path fill="rgb(255,255,255)" fill-rule="evenodd" d="M25 20 C25 20 25 21 25 21 C25 21 2 21 2 21 C2 21 2 20 2 20 C0.895432 20 7.59169e-009 19.1046 7.59169e-009 18 C7.59169e-009 18 7.59169e-009 5 7.59169e-009 5 C7.59169e-009 3.89543 0.895432 3 2 3 C2 3 4 3 4 3 C4 2.53772 4.44772 2 5 2 C5 2 6 2 6 2 C6.55228 2 7 2.44772 7 3 C7 3 9 3 9 3 C9 3 9 2 9 2 C9 0.895431 9.89543 6.68859e-009 11 6.68859e-009 C11 6.68859e-009 17 6.68859e-009 17 6.68859e-009 C18.1046 6.68859e-009 19 0.895431 19 2 C19 2 19 3 19 3 C19 3 25 3 25 3 C26.1046 3 27 3.89543 27 5 C27 5 27 18 27 18 C27 19.1046 26.1046 20 25 20 Z M7 16 C6.44772 16 6 16.4477 6 17 C6 17.5523 6.44772 18 7 18 C7.55229 18 8 17.5523 8 17 C8 16.4477 7.55229 16 7 16 Z M14 6 C10.6863 6 8 8.68629 8 12 C8 15.3137 10.6863 18 14 18 C17.3137 18 20 15.3137 20 12 C20 8.68629 17.3137 6 14 6 Z M25 5 C25 5 21 5 21 5 C21 5 21 7 21 7 C21 7 25 7 25 7 C25 7 25 5 25 5 Z M14 16 C11.7909 16 10 14.2091 10 12 C10 9.79086 11.7909 8 14 8 C16.2091 8 18 9.79086 18 12 C18 14.2091 16.2091 16 14 16 Z"/>
</svg>