<?xml version="1.0" encoding="utf-8" ?>
<!DOCTYPE svg PUBLIC "-//W3C//DTD SVG 1.1//EN" "http://www.w3.org/Graphics/SVG/1.1/DTD/svg11.dtd">
<svg version="1.1" baseProfile="full" xmlns="http://www.w3.org/2000/svg" xmlns:xlink="http://www.w3.org/1999/xlink" xmlns:ev="http://www.w3.org/2001/xml-events" width="30px" height="31px">
  <style>
  svg:hover {
    cursor: pointer;
  }
  g {
    transition: opacity 0.2s;
  }
  svg:hover g {
    opacity: 1;
  }
  </style>
  <g opacity="0.301961">
    <path fill="rgb(173,107,43)" fill-rule="evenodd" d="M1.7153e-005 3.00002 C1.7153e-005 3.00002 18 1.52425e-005 18 1.52425e-005 C18 1.52425e-005 18 31 18 31 C18 31 1.7153e-005 28 1.7153e-005 28 C1.7153e-005 28 1.7153e-005 3.00002 1.7153e-005 3.00002 Z" />
    <path fill="rgb(255,255,255)" fill-rule="evenodd" d="M13 21 C13 21 11 21 11 21 C11 21 9.00001 17.3334 9.00001 17.3334 C9.00001 17.3334 7.00002 21 7.00002 21 C7.00002 21 5 21 5 21 C5 21 8 15.5 8 15.5 C8 15.5 5 10 5 10 C5 10 7.00002 10 7.00002 10 C7.00002 10 9.00001 13.6666 9.00001 13.6666 C9.00001 13.6666 11 10 11 10 C11 10 13 10 13 10 C13 10 10 15.5 10 15.5 C10 15.5 13 21 13 21 Z" />
    <path fill="none" fill-rule="evenodd" d="M15 4 C15 4 29.0001 4 29.0001 4 C29.5523 4 30 4.44774 30 5.00003 C30 5.00003 30 27 30 27 C30 27.5523 29.5523 28 29.0001 28 C29.0001 28 15 28 15 28 C15 28 15 4 15 4 Z" stroke="rgb(173,107,43)" stroke-width="1px" stroke-linecap="butt" stroke-linejoin="miter" />
    <path fill="none" fill-rule="evenodd" d="M22.0001 25 C22.0001 25 22.0001 23 22.0001 23 C22.0001 23 26 23 26 23 C26 23 26 25 26 25 C26 25 22.0001 25 22.0001 25 Z M22.0001 19 C22.0001 19 26 19 26 19 C26 19 26 21 26 21 C26 21 22.0001 21 22.0001 21 C22.0001 21 22.0001 19 22.0001 19 Z M22.0001 15 C22.0001 15 26 15 26 15 C26 15 26 17 26 17 C26 17 22.0001 17 22.0001 17 C22.0001 17 22.0001 15 22.0001 15 Z M22.0001 11 C22.0001 11 26 11 26 11 C26 11 26 13 26 13 C26 13 22.0001 13 22.0001 13 C22.0001 13 22.0001 11 22.0001 11 Z M22.0001 7 C22.0001 7 26 7 26 7 C26 7 26 9.00002 26 9.00002 C26 9.00002 22.0001 9.00002 22.0001 9.00002 C22.0001 9.00002 22.0001 7 22.0001 7 Z M16.0001 23 C16.0001 23 20 23 20 23 C20 23 20 25 20 25 C20 25 16.0001 25 16.0001 25 C16.0001 25 16.0001 23 16.0001 23 Z M16.0001 19 C16.0001 19 20 19 20 19 C20 19 20 21 20 21 C20 21 16.0001 21 16.0001 21 C16.0001 21 16.0001 19 16.0001 19 Z M16.0001 15 C16.0001 15 20 15 20 15 C20 15 20 17 20 17 C20 17 16.0001 17 16.0001 17 C16.0001 17 16.0001 15 16.0001 15 Z M16.0001 11 C16.0001 11 20 11 20 11 C20 11 20 13 20 13 C20 13 16.0001 13 16.0001 13 C16.0001 13 16.0001 11 16.0001 11 Z M16.0001 7 C16.0001 7 20 7 20 7 C20 7 20 9.00002 20 9.00002 C20 9.00002 16.0001 9.00002 16.0001 9.00002 C16.0001 9.00002 16.0001 7 16.0001 7 Z" stroke="rgb(173,107,43)" stroke-width="1px" stroke-linecap="butt" stroke-linejoin="miter" />
  </g>
</svg>
