<?xml version="1.0" encoding="utf-8" ?>
<!DOCTYPE svg PUBLIC "-//W3C//DTD SVG 1.1//EN" "http://www.w3.org/Graphics/SVG/1.1/DTD/svg11.dtd">
<svg version="1.1" baseProfile="full" xmlns="http://www.w3.org/2000/svg" xmlns:xlink="http://www.w3.org/1999/xlink" xmlns:ev="http://www.w3.org/2001/xml-events" width="23px" height="25px">
  <path fill="rgb(173,107,43)" fill-rule="evenodd" d="M14 17.9091 C14 17.9091 14 24 14 24 C14 24.5523 13.1046 25 12 25 C10.8954 25 10.0001 24.5523 10.0001 24 C10.0001 24 10.0001 18.1668 10.0001 18.1668 C10.0001 18.1668 1.14503e-005 4.00003 1.14503e-005 4.00003 C1.14503e-005 1.79086 4.0968 0.0686188 11 -1.1407e-008 C18.8011 -0.0774994 23.0001 1.79086 23.0001 4.00003 C23.0001 4.00003 14 17.9091 14 17.9091 Z M11.5 2.00002 C6.25329 2.00002 2.00004 2.6716 2.00004 3.50002 C2.00004 4.32843 6.25329 5.00002 11.5 5.00002 C16.7467 5.00002 21 4.32843 21 3.50002 C21 2.6716 16.7467 2.00002 11.5 2.00002 Z" />
</svg>
