<?xml version="1.0" encoding="utf-8"?>
<!DOCTYPE svg PUBLIC "-//W3C//DTD SVG 1.1//EN" "http://www.w3.org/Graphics/SVG/1.1/DTD/svg11.dtd">
<svg version="1.1" baseProfile="full" 
	xmlns="http://www.w3.org/2000/svg"
	xmlns:xlink="http://www.w3.org/1999/xlink"
	xmlns:ev="http://www.w3.org/2001/xml-events"
	width="22px" height="22px">
<path fill="rgb(255,255,255)" fill-rule="evenodd" d="M20.7799 12.2235 C20.7799 12.2235 19.4652 12.2235 19.4652 12.2235 C19.3788 12.8256 19.2305 13.4063 19.0257 13.9612 C19.0257 13.9612 20.0801 14.57 20.0801 14.57 C20.6648 14.9075 20.8651 15.655 20.5276 16.2395 C20.19 16.8241 19.4426 17.0244 18.8579 16.6869 C18.8579 16.6869 17.8588 16.1101 17.8588 16.1101 C17.437 16.6753 16.9534 17.1911 16.4074 17.6365 C16.4074 17.6365 16.9641 18.6007 16.9641 18.6007 C17.3016 19.1853 17.1013 19.9328 16.5168 20.2703 C15.9321 20.6078 15.1847 20.4075 14.8471 19.8229 C14.8471 19.8229 14.3126 18.8971 14.3126 18.8971 C13.6535 19.1739 12.9496 19.3615 12.2188 19.4659 C12.2188 19.4659 12.2188 21 12.2188 21 C12.2188 21.5523 11.771 22 11.2188 22 C11.2188 22 10.7812 22 10.7812 22 C10.229 22 9.78125 21.5523 9.78125 21 C9.78125 21 9.78125 19.4659 9.78125 19.4659 C9.09951 19.3685 8.44329 19.1949 7.82324 18.9468 C7.82324 18.9468 7.16958 20.0789 7.16958 20.0789 C6.83218 20.6635 6.0846 20.8638 5.50009 20.5263 C4.91541 20.1888 4.71517 19.4413 5.05265 18.8567 C5.05265 18.8567 5.70751 17.7224 5.70751 17.7224 C5.16634 17.2958 4.67967 16.8058 4.25532 16.2627 C4.25532 16.2627 3.06945 16.9474 3.06945 16.9474 C2.48477 17.2849 1.73736 17.0846 1.39979 16.5 C1.0623 15.9154 1.26254 15.1679 1.84722 14.8305 C1.84722 14.8305 3.04037 14.1416 3.04037 14.1416 C2.8 13.5332 2.63056 12.8908 2.53482 12.2235 C2.53482 12.2235 1.22435 12.2235 1.22435 12.2235 C0.54929 12.2235 0.00211907 11.6763 0.00211907 11.0013 C0.00211907 10.3262 0.54929 9.77901 1.22435 9.77901 C1.22435 9.77901 2.53444 9.77901 2.53444 9.77901 C2.64307 9.02025 2.84358 8.29167 3.13753 7.61075 C3.13753 7.61075 1.92232 6.90915 1.92232 6.90915 C1.33782 6.57164 1.13749 5.82416 1.47497 5.23955 C1.81246 4.65498 2.56005 4.45467 3.14455 4.79222 C3.14455 4.79222 4.41695 5.52684 4.41695 5.52684 C4.83158 5.02868 5.3064 4.58467 5.82248 4.19159 C5.82248 4.19159 5.06948 2.88733 5.06948 2.88733 C4.73182 2.30276 4.93223 1.55524 5.51674 1.21777 C6.10142 0.880219 6.84883 1.08054 7.18632 1.66515 C7.18632 1.66515 7.95904 3.00353 7.95904 3.00353 C8.53918 2.78272 9.1486 2.6245 9.78125 2.5341 C9.78125 2.5341 9.78125 1 9.78125 1 C9.78125 0.447715 10.229 -1.86265e-009 10.7812 -1.86265e-009 C10.7812 -1.86265e-009 11.2188 -1.86265e-009 11.2188 -1.86265e-009 C11.771 -1.86265e-009 12.2188 0.447715 12.2188 1 C12.2188 1 12.2188 2.5341 12.2188 2.5341 C12.9005 2.63152 13.5568 2.80511 14.1768 3.05326 C14.1768 3.05326 14.8305 1.92108 14.8305 1.92108 C15.168 1.33652 15.9155 1.13625 16.5 1.47371 C17.0847 1.81127 17.2849 2.55875 16.9474 3.14336 C16.9474 3.14336 16.2926 4.27761 16.2926 4.27761 C16.8142 4.6889 17.2867 5.15786 17.7002 5.67772 C17.7002 5.67772 18.7828 5.05264 18.7828 5.05264 C19.3673 4.71518 20.1149 4.91541 20.4524 5.50002 C20.7899 6.08458 20.5896 6.83211 20.005 7.16962 C20.005 7.16962 18.9339 7.78805 18.9339 7.78805 C19.1891 8.41763 19.3663 9.08536 19.4656 9.77901 C19.4656 9.77901 20.7799 9.77901 20.7799 9.77901 C21.455 9.77901 22.0022 10.3262 22.0022 11.0013 C22.0022 11.6763 21.455 12.2235 20.7799 12.2235 Z M11 6.125 C8.30761 6.125 6.125 8.30761 6.125 11 C6.125 13.6924 8.30761 15.875 11 15.875 C13.6924 15.875 15.875 13.6924 15.875 11 C15.875 8.30761 13.6924 6.125 11 6.125 Z"/>
</svg>