<?xml version="1.0" encoding="utf-8" ?>
<!DOCTYPE svg PUBLIC "-//W3C//DTD SVG 1.1//EN" "http://www.w3.org/Graphics/SVG/1.1/DTD/svg11.dtd">
<svg version="1.1" baseProfile="full" xmlns="http://www.w3.org/2000/svg" xmlns:xlink="http://www.w3.org/1999/xlink" xmlns:ev="http://www.w3.org/2001/xml-events" width="22px" height="22px">
  <path fill="rgb(255,255,255)" fill-rule="evenodd" d="M21.6613 4.53366 C21.6613 4.53366 20.9621 5.23282 20.9621 5.23282 C20.9621 5.23282 16.7672 1.03786 16.7672 1.03786 C16.7672 1.03786 17.4663 0.338694 17.4663 0.338694 C18.2386 -0.433579 20.1899 0.265582 20.9621 1.03786 C21.7344 1.81013 22.4336 3.76139 21.6613 4.53366 Z M19.5638 6.63115 C19.5638 6.63115 15.3689 2.43618 15.3689 2.43618 C15.3689 2.43618 16.068 1.73702 16.068 1.73702 C16.068 1.73702 20.263 5.93199 20.263 5.93199 C20.263 5.93199 19.5638 6.63115 19.5638 6.63115 Z M6.97891 19.2161 C6.97891 19.2161 2.78394 15.0211 2.78394 15.0211 C2.78394 15.0211 14.6697 3.13534 14.6697 3.13534 C14.6697 3.13534 18.8647 7.33031 18.8647 7.33031 C18.8647 7.33031 6.97891 19.2161 6.97891 19.2161 Z M-0.0127065 22.0127 C-0.0127065 22.0127 2.08478 15.7203 2.08478 15.7203 C2.08478 15.7203 6.27975 19.9152 6.27975 19.9152 C6.27975 19.9152 -0.0127065 22.0127 -0.0127065 22.0127 Z" />
</svg>
