<?xml version="1.0" encoding="utf-8"?>
<!DOCTYPE svg PUBLIC "-//W3C//DTD SVG 1.1//EN" "http://www.w3.org/Graphics/SVG/1.1/DTD/svg11.dtd">
<svg version="1.1" baseProfile="full" 
	xmlns="http://www.w3.org/2000/svg"
	xmlns:xlink="http://www.w3.org/1999/xlink"
	xmlns:ev="http://www.w3.org/2001/xml-events"
	width="18px" height="15px">
<g>
<path fill="rgb(255,255,255)" fill-rule="evenodd" d="M14 15 C14 15 3.99999 15 3.99999 15 C2.3432 15 1.00004 13.6568 1.00004 12 C1.00004 12 1.00004 10 1.00004 10 C1.00004 10 3.99999 13 3.99999 13 C3.99999 13 8.00005 9.00002 8.00005 9.00002 C8.00005 9.00002 11 11 11 11 C11 11 17 4 17 4 C17 4 17 12 17 12 C17 13.6568 15.6569 15 14 15 Z"/>
<path fill="none" fill-rule="evenodd" d="M1.00004 7 C1.00004 7 3.99999 10 3.99999 10 C3.99999 10 8.00005 6.00002 8.00005 6.00002 C8.00005 6.00002 11 8.00003 11 8.00003 C11 8.00003 17 1 17 1" stroke="rgb(255,255,255)" stroke-width="1px" stroke-linecap="butt" stroke-linejoin="miter"/>
</g>
</svg>