<?xml version="1.0" encoding="utf-8" ?>
<!DOCTYPE svg PUBLIC "-//W3C//DTD SVG 1.1//EN" "http://www.w3.org/Graphics/SVG/1.1/DTD/svg11.dtd">
<svg version="1.1" onclick="parent.goToAppStore(123)" id="Слой_1"  xmlns="http://www.w3.org/2000/svg" xmlns:xlink="http://www.w3.org/1999/xlink" x="0px" y="0px" width="30px" height="30px" viewBox="0 0 30 30" style="enable-background:new 0 0 30 30;" xml:space="preserve">
    <style type="text/css">
    .st0 {
        opacity: 0.45;
    }
    .st1 {
        fill: #FFFFFF;
    }
    svg:hover .st0 {
        opacity: 1;
    }
    .st0 {
        transition: opacity .4s ease;
    }
    .st2 {
        display: none;
    }
    .st3 {
        display: inline;
        fill: #FFFFFF;
    }
    svg:hover {
        cursor: pointer;
    }
    </style>
    <g  class="st0">
        <polygon class="st1" points="9.4,19.3 7.7,18.2 11.8,10.8 13.7,11.9 	" />
        <path class="st1 footer-icon" d="M15,6.2l-0.8,0.5c-0.2,0.1-0.3,0.4-0.2,0.7l4.9,8.8l1.8-1.1l-5-8.8C15.6,6.1,15.2,6.1,15,6.2z" />
        <polygon class="st1" points="20.9,15.6 19.1,16.6 20,18.3 21.9,17.3 	" />
        <path class="st1" d="M13.8,11.5l-1.7-1l0.8-1.3C13,8.9,13.4,8.8,13.6,9l0.9,0.5c0.3,0.1,0.3,0.5,0.2,0.7L13.8,11.5z" />
        <polygon class="st1" points="6.5,22.3 7.4,18.6 9.3,19.7 	" />
        <path class="st1" d="M20.5,19.1c0-0.3,0.3-0.7,0.7-1c0.5-0.3,1-0.4,1.4,0.1c0.5,0.5,0.8,1.4,0.8,2.4c0,1-0.4,1.7-0.5,1.9
		c-0.1,0.2-0.1-0.4-0.3-0.8c-0.3-0.4-0.9-0.9-1.2-1.2C21,20.2,20.5,19.6,20.5,19.1z" />
        <polygon class="st1" points="8.4,16.2 5.7,16.2 5.7,14.1 9.5,14.1 	" />
        <polygon class="st1" points="21.8,16.2 24.5,16.2 24.5,14.1 20.6,14.1 	" />
        <polygon class="st1" points="17.2,14.1 12.8,14.1 11.6,16.2 18.4,16.2 	" />
        <path class="st1" d="M15,1.5c7.4,0,13.5,6,13.5,13.5c0,7.4-6,13.5-13.5,13.5S1.5,22.4,1.5,15C1.5,7.6,7.6,1.5,15,1.5 M15,0
		C6.7,0,0,6.7,0,15s6.7,15,15,15s15-6.7,15-15S23.3,0,15,0L15,0z" />
    </g>
</svg>
