<?xml version="1.0" encoding="utf-8"?>
<!-- Generator: Adobe Illustrator 17.1.0, SVG Export Plug-In . SVG Version: 6.00 Build 0)  -->
<!DOCTYPE svg PUBLIC "-//W3C//DTD SVG 1.1//EN" "http://www.w3.org/Graphics/SVG/1.1/DTD/svg11.dtd">
<svg version="1.1" id="Слой_1" xmlns="http://www.w3.org/2000/svg" xmlns:xlink="http://www.w3.org/1999/xlink" x="0px" y="0px"
	 width="30px" height="30px" viewBox="0 0 30 30" style="enable-background:new 0 0 30 30;" xml:space="preserve">
<style type="text/css">
	.st0{display:none;opacity:0.45;fill:#FFFFFF;}
	.st1{fill:#FFFFFF;}
</style>
<path class="st0" d="M15,0C6.7,0,0,6.7,0,15s6.7,15,15,15s15-6.7,15-15S23.3,0,15,0z M19.6,8.7l-1.8,0c-1.4,0-1.7,0.7-1.7,1.6v2.1
	h3.3l-0.4,3.4h-2.9v8.6h-3.5v-8.6H9.8v-3.4h2.9V10c0-2.9,1.8-4.4,4.3-4.4c1.2,0,2.3,0.1,2.6,0.1V8.7z"/>
<path class="st1" d="M15,0C6.7,0,0,6.7,0,15s6.7,15,15,15s15-6.7,15-15S23.3,0,15,0z M19.6,8.7l-1.8,0c-1.4,0-1.7,0.7-1.7,1.6v2.1
	h3.3l-0.4,3.4h-2.9v8.6h-3.5v-8.6H9.8v-3.4h2.9V10c0-2.9,1.8-4.4,4.3-4.4c1.2,0,2.3,0.1,2.6,0.1V8.7z"/>
</svg>
