<?xml version="1.0" encoding="utf-8"?>
<!-- Generator: Adobe Illustrator 17.1.0, SVG Export Plug-In . SVG Version: 6.00 Build 0)  -->
<!DOCTYPE svg PUBLIC "-//W3C//DTD SVG 1.1//EN" "http://www.w3.org/Graphics/SVG/1.1/DTD/svg11.dtd">
<svg version="1.1" id="Слой_1" xmlns="http://www.w3.org/2000/svg" xmlns:xlink="http://www.w3.org/1999/xlink" x="0px" y="0px"
	 width="52px" height="73px" viewBox="0 0 52 73" style="enable-background:new 0 0 52 73;" xml:space="preserve">
<style type="text/css">
	.st0{fill:#C88366;}
	.st1{fill:#FFFFFF;}
</style>
<g id="пароль_1_">
	<g>
		<path class="st0" d="M28.1,68.2H24c-9.4,0-17.1-7.7-17.1-17.1V17.8C6.9,8.4,14.6,0.8,24,0.8h4.1c9.4,0,17.1,7.7,17.1,17.1v33.3
			C45.1,60.5,37.5,68.2,28.1,68.2z M24,4.2c-7.5,0-13.7,6.1-13.7,13.7v33.3c0,7.5,6.1,13.7,13.7,13.7h4.1c7.5,0,13.7-6.1,13.7-13.7
			V17.8c0-7.5-6.1-13.7-13.7-13.7H24z"/>
	</g>
	<g>
		<g>
			<path class="st1" d="M26,70.5C13.1,70.5,2.6,60,2.6,47.1c0-12.9,10.5-23.4,23.4-23.4s23.4,10.5,23.4,23.4
				C49.4,60,38.9,70.5,26,70.5z"/>
		</g>
		<g>
			<path class="st0" d="M26,25.4c12,0,21.7,9.7,21.7,21.7S38,68.8,26,68.8S4.3,59.1,4.3,47.1S14,25.4,26,25.4 M26,21.9
				c-13.9,0-25.1,11.3-25.1,25.1C0.9,61,12.1,72.2,26,72.2c13.9,0,25.1-11.3,25.1-25.1C51.1,33.2,39.9,21.9,26,21.9L26,21.9z"/>
		</g>
	</g>
	<g>
		<circle class="st1" cx="26" cy="47.1" r="11.9"/>
	</g>
	<g>
		<path class="st0" d="M26,61.7c-8.1,0-14.6-6.6-14.6-14.6S17.9,32.5,26,32.5S40.6,39,40.6,47.1S34.1,61.7,26,61.7z M26,33.1
			c-7.7,0-14,6.3-14,14s6.3,14,14,14s14-6.3,14-14S33.7,33.1,26,33.1z"/>
	</g>
	<g>
		<g>
			<rect x="11.7" y="46.9" class="st0" width="28.6" height="0.4"/>
		</g>
		<g>
			
				<rect x="25.8" y="32.8" transform="matrix(0.2577 0.9662 -0.9662 0.2577 64.7996 9.8391)" class="st0" width="0.4" height="28.6"/>
		</g>
		<g>
			
				<rect x="25.8" y="32.8" transform="matrix(0.5003 0.8658 -0.8658 0.5003 53.7622 1.0215)" class="st0" width="0.4" height="28.6"/>
		</g>
		<g>
			
				<rect x="25.8" y="32.8" transform="matrix(0.7071 0.7071 -0.7071 0.7071 40.9128 -4.5892)" class="st0" width="0.4" height="28.6"/>
		</g>
		<g>
			
				<rect x="25.8" y="32.8" transform="matrix(0.8663 0.4995 -0.4995 0.8663 26.9974 -6.6897)" class="st0" width="0.4" height="28.6"/>
		</g>
		<g>
			<rect x="25.8" y="32.8" transform="matrix(0.9656 0.26 -0.26 0.9656 13.1364 -5.1392)" class="st0" width="0.4" height="28.6"/>
		</g>
		<g>
			<rect x="25.8" y="32.8" class="st0" width="0.4" height="28.6"/>
		</g>
		<g>
			
				<rect x="11.7" y="46.9" transform="matrix(0.2588 0.9659 -0.9659 0.2588 64.7544 9.7921)" class="st0" width="28.6" height="0.4"/>
		</g>
		<g>
			<rect x="11.7" y="46.9" transform="matrix(0.5 0.866 -0.866 0.5 53.7804 1.032)" class="st0" width="28.6" height="0.4"/>
		</g>
		<g>
			
				<rect x="11.7" y="46.9" transform="matrix(0.7071 0.7071 -0.7071 0.7071 40.9128 -4.5892)" class="st0" width="28.6" height="0.4"/>
		</g>
		<g>
			<rect x="11.7" y="46.9" transform="matrix(0.866 0.5 -0.5 0.866 27.0288 -6.6889)" class="st0" width="28.6" height="0.4"/>
		</g>
		<g>
			
				<rect x="11.7" y="46.9" transform="matrix(0.9659 0.2588 -0.2588 0.9659 13.0744 -5.1239)" class="st0" width="28.6" height="0.4"/>
		</g>
	</g>
	<g>
		<circle class="st1" cx="26" cy="47.1" r="11.9"/>
	</g>
	<g>
		<g>
			<circle class="st0" cx="26" cy="47.1" r="9"/>
		</g>
	</g>
	<g>
		<polygon class="st0" points="23.4,38.6 28.6,38.6 26,32.7 		"/>
	</g>
	<g>
		<circle class="st1" cx="26" cy="47.1" r="3.7"/>
	</g>
</g>
</svg>
