<?xml version="1.0" encoding="utf-8"?>
<!-- Generator: Adobe Illustrator 17.1.0, SVG Export Plug-In . SVG Version: 6.00 Build 0)  -->
<!DOCTYPE svg PUBLIC "-//W3C//DTD SVG 1.1//EN" "http://www.w3.org/Graphics/SVG/1.1/DTD/svg11.dtd">
<svg version="1.1" id="Слой_1" xmlns="http://www.w3.org/2000/svg" xmlns:xlink="http://www.w3.org/1999/xlink" x="0px" y="0px"
	 width="22px" height="22px" viewBox="0 0 22 22" style="enable-background:new 0 0 22 22;" xml:space="preserve">
<style type="text/css">
	.st0{display:none;}
	.st1{display:inline;}
	.st2{fill:#8E8E8E;}
	.st3{fill:#E56E3B;}
</style>
<g class="st0">
	<g class="st1">
		<path class="st2" d="M19.8,21.4l-4.3-2.8v-18l5.7,4c0.5,0.4,0.7,1.1,0.7,1.9v12.9C21.9,21.1,20.7,22.2,19.8,21.4z"/>
		<path class="st2" d="M0.8,3.9l10,5.1c0.3,0.2,0.3,0.6,0,0.8l-9.9,5.3c-0.3,0.2-0.7-0.2-0.6-0.5L2,9.9c0-0.1,0-0.2,0-0.3L0.2,4.4
			C0,4.1,0.4,3.7,0.8,3.9z"/>
		<path class="st2" d="M5.4,0.6c-0.7,0-1.3,0.7-1.3,1.5v1.6L5,4.1v-2c0-0.4,0.2-0.6,0.4-0.6h9.2v16.3H5.4c-0.2,0-0.4-0.3-0.4-0.6
			v-2.3l-0.9,0.5v1.9c0,0.8,0.6,1.5,1.3,1.5h10.1H16L15.6,0.9l-0.2-0.2H5.4z"/>
	</g>
</g>
<g>
	<path class="st3" d="M19.8,21.4l-4.3-2.8v-18l5.7,4c0.5,0.4,0.7,1.1,0.7,1.9v12.9C21.9,21.1,20.7,22.2,19.8,21.4z"/>
	<path class="st3" d="M0.8,3.9l10,5.1c0.3,0.2,0.3,0.6,0,0.8l-9.9,5.3c-0.3,0.2-0.7-0.2-0.6-0.5L2,9.9c0-0.1,0-0.2,0-0.3L0.2,4.4
		C0,4.1,0.4,3.7,0.8,3.9z"/>
	<path class="st3" d="M5.4,0.6c-0.7,0-1.3,0.7-1.3,1.5v1.6L5,4.1v-2c0-0.4,0.2-0.6,0.4-0.6h9.2v16.3H5.4c-0.2,0-0.4-0.3-0.4-0.6
		v-2.3l-0.9,0.5v1.9c0,0.8,0.6,1.5,1.3,1.5h10.1H16L15.6,0.9l-0.2-0.2H5.4z"/>
</g>
</svg>
