<?xml version="1.0" encoding="utf-8"?>
<!-- Generator: Adobe Illustrator 17.1.0, SVG Export Plug-In . SVG Version: 6.00 Build 0)  -->
<!DOCTYPE svg PUBLIC "-//W3C//DTD SVG 1.1//EN" "http://www.w3.org/Graphics/SVG/1.1/DTD/svg11.dtd">
<svg version="1.1" id="Слой_1" xmlns="http://www.w3.org/2000/svg" xmlns:xlink="http://www.w3.org/1999/xlink" x="0px" y="0px"
	 width="139px" height="62px" viewBox="0 0 139 62" style="enable-background:new 0 0 139 62;" xml:space="preserve">
<style type="text/css">
	.st0{opacity:0.35;}
	.st1{fill:#C88366;}
	.st2{opacity:0.1;}
</style>
<g id="пароль_одноразовый_1_">
	<g>
		<g class="st0">
			<g>
				<path class="st1" d="M13.3,23.8c0.6,0.3,0.8,1.2,0.4,1.7L10,30.4v0.1l5.8-0.8c0.7-0.1,1.3,0.5,1.3,1.2v0.5
					c0,0.7-0.6,1.2-1.3,1.2L10,31.9V32l3.7,4.6c0.4,0.6,0.3,1.4-0.3,1.7l-0.6,0.4c-0.6,0.3-1.4,0.1-1.7-0.6l-2.3-5.4H8.6l-2.5,5.4
					C5.8,38.8,5,39,4.5,38.6L4,38.3c-0.6-0.4-0.7-1.2-0.3-1.7l3.7-4.7v-0.1l-5.6,0.7c-0.7,0.1-1.3-0.5-1.3-1.2v-0.5
					c0-0.7,0.6-1.2,1.3-1.2l5.6,0.7v-0.1l-3.6-4.7c-0.4-0.6-0.3-1.4,0.3-1.7l0.6-0.3c0.6-0.3,1.4-0.1,1.6,0.5l2.4,5.3h0.1l2.3-5.4
					c0.3-0.6,1-0.9,1.6-0.5L13.3,23.8z"/>
			</g>
			<g>
				<path class="st1" d="M43.8,23.8c0.6,0.3,0.8,1.2,0.4,1.7l-3.7,4.8v0.1l5.8-0.8c0.7-0.1,1.3,0.5,1.3,1.2v0.5
					c0,0.7-0.6,1.2-1.3,1.2l-5.8-0.7V32l3.7,4.6c0.4,0.6,0.3,1.4-0.3,1.7l-0.6,0.4c-0.6,0.3-1.4,0.1-1.7-0.6l-2.3-5.4h-0.1l-2.5,5.4
					c-0.3,0.6-1.1,0.9-1.7,0.5l-0.5-0.3c-0.6-0.4-0.7-1.2-0.3-1.7l3.7-4.7v-0.1l-5.6,0.7c-0.7,0.1-1.3-0.5-1.3-1.2v-0.5
					c0-0.7,0.6-1.2,1.3-1.2l5.6,0.7v-0.1l-3.6-4.7c-0.4-0.6-0.3-1.4,0.3-1.7l0.6-0.3c0.6-0.3,1.4-0.1,1.6,0.5l2.4,5.3h0.1l2.3-5.4
					c0.3-0.6,1-0.9,1.6-0.5L43.8,23.8z"/>
			</g>
			<g>
				<path class="st1" d="M74,23.8c0.6,0.3,0.8,1.2,0.4,1.7l-3.7,4.8v0.1l5.8-0.8c0.7-0.1,1.3,0.5,1.3,1.2v0.5c0,0.7-0.6,1.2-1.3,1.2
					l-5.8-0.7V32l3.7,4.6c0.4,0.6,0.3,1.4-0.3,1.7l-0.6,0.4c-0.6,0.3-1.4,0.1-1.7-0.6l-2.3-5.4h-0.1l-2.5,5.4
					c-0.3,0.6-1.1,0.9-1.7,0.5l-0.5-0.3c-0.6-0.4-0.7-1.2-0.3-1.7l3.7-4.7v-0.1l-5.6,0.7c-0.7,0.1-1.3-0.5-1.3-1.2v-0.5
					c0-0.7,0.6-1.2,1.3-1.2l5.6,0.7v-0.1l-3.6-4.7c-0.4-0.6-0.3-1.4,0.3-1.7l0.6-0.3c0.6-0.3,1.4-0.1,1.6,0.5l2.4,5.3h0.1l2.3-5.4
					c0.3-0.6,1-0.9,1.6-0.5L74,23.8z"/>
			</g>
			<g>
				<path class="st1" d="M104.6,23.8c0.6,0.3,0.8,1.2,0.4,1.7l-3.7,4.8v0.1l5.8-0.8c0.7-0.1,1.3,0.5,1.3,1.2v0.5
					c0,0.7-0.6,1.2-1.3,1.2l-5.8-0.7V32l3.7,4.6c0.4,0.6,0.3,1.4-0.3,1.7l-0.6,0.4c-0.6,0.3-1.4,0.1-1.7-0.6l-2.3-5.4H100l-2.5,5.4
					c-0.3,0.6-1.1,0.9-1.7,0.5l-0.5-0.3c-0.6-0.4-0.7-1.2-0.3-1.7l3.7-4.7v-0.1l-5.6,0.7c-0.7,0.1-1.3-0.5-1.3-1.2v-0.5
					c0-0.7,0.6-1.2,1.3-1.2l5.6,0.7v-0.1L95,25.6c-0.4-0.6-0.3-1.4,0.3-1.7l0.6-0.3c0.6-0.3,1.4-0.1,1.6,0.5l2.4,5.3h0.1l2.3-5.4
					c0.3-0.6,1-0.9,1.6-0.5L104.6,23.8z"/>
			</g>
			<g>
				<path class="st1" d="M134.9,23.8c0.6,0.3,0.8,1.2,0.4,1.7l-3.7,4.8v0.1l5.8-0.8c0.7-0.1,1.3,0.5,1.3,1.2v0.5
					c0,0.7-0.6,1.2-1.3,1.2l-5.8-0.7V32l3.7,4.6c0.4,0.6,0.3,1.4-0.3,1.7l-0.6,0.4c-0.6,0.3-1.4,0.1-1.7-0.6l-2.3-5.4h-0.1l-2.5,5.4
					c-0.3,0.6-1.1,0.9-1.7,0.5l-0.5-0.3c-0.6-0.4-0.7-1.2-0.3-1.7l3.7-4.7v-0.1l-5.6,0.7c-0.7,0.1-1.3-0.5-1.3-1.2v-0.5
					c0-0.7,0.6-1.2,1.3-1.2l5.6,0.7v-0.1l-3.6-4.7c-0.4-0.6-0.3-1.4,0.3-1.7l0.6-0.3c0.6-0.3,1.4-0.1,1.6,0.5l2.4,5.3h0.1l2.3-5.4
					c0.3-0.6,1-0.9,1.6-0.5L134.9,23.8z"/>
			</g>
		</g>
		<g>
			<g>
				<path class="st1" d="M13.3,46.6c0.6,0.3,0.8,1.2,0.4,1.7L10,53.1v0.1l5.8-0.8c0.7-0.1,1.3,0.5,1.3,1.2v0.5
					c0,0.7-0.6,1.2-1.3,1.2L10,54.6v0.1l3.7,4.6c0.4,0.6,0.3,1.4-0.3,1.7l-0.6,0.4c-0.6,0.3-1.4,0.1-1.7-0.6l-2.3-5.4H8.6l-2.5,5.4
					c-0.3,0.6-1.1,0.9-1.7,0.5L4,61.1c-0.6-0.4-0.7-1.2-0.3-1.7l3.7-4.7v-0.1l-5.6,0.7c-0.7,0.1-1.3-0.5-1.3-1.2v-0.5
					c0-0.7,0.6-1.2,1.3-1.2l5.6,0.7v-0.1l-3.6-4.7c-0.4-0.6-0.3-1.4,0.3-1.7l0.6-0.3C5.2,46,6,46.2,6.3,46.9l2.4,5.3h0.1l2.3-5.4
					c0.3-0.6,1-0.9,1.6-0.5L13.3,46.6z"/>
			</g>
			<g>
				<path class="st1" d="M43.8,46.6c0.6,0.3,0.8,1.2,0.4,1.7l-3.7,4.8v0.1l5.8-0.8c0.7-0.1,1.3,0.5,1.3,1.2v0.5
					c0,0.7-0.6,1.2-1.3,1.2l-5.8-0.7v0.1l3.7,4.6c0.4,0.6,0.3,1.4-0.3,1.7l-0.6,0.4c-0.6,0.3-1.4,0.1-1.7-0.6l-2.3-5.4h-0.1
					l-2.5,5.4c-0.3,0.6-1.1,0.9-1.7,0.5l-0.5-0.3c-0.6-0.4-0.7-1.2-0.3-1.7l3.7-4.7v-0.1l-5.6,0.7c-0.7,0.1-1.3-0.5-1.3-1.2v-0.5
					c0-0.7,0.6-1.2,1.3-1.2l5.6,0.7v-0.1l-3.6-4.7c-0.4-0.6-0.3-1.4,0.3-1.7l0.6-0.3c0.6-0.3,1.4-0.1,1.6,0.5l2.4,5.3h0.1l2.3-5.4
					c0.3-0.6,1-0.9,1.6-0.5L43.8,46.6z"/>
			</g>
			<g>
				<path class="st1" d="M74,46.6c0.6,0.3,0.8,1.2,0.4,1.7l-3.7,4.8v0.1l5.8-0.8c0.7-0.1,1.3,0.5,1.3,1.2v0.5c0,0.7-0.6,1.2-1.3,1.2
					l-5.8-0.7v0.1l3.7,4.6c0.4,0.6,0.3,1.4-0.3,1.7l-0.6,0.4c-0.6,0.3-1.4,0.1-1.7-0.6l-2.3-5.4h-0.1l-2.5,5.4
					c-0.3,0.6-1.1,0.9-1.7,0.5l-0.5-0.3c-0.6-0.4-0.7-1.2-0.3-1.7l3.7-4.7v-0.1l-5.6,0.7c-0.7,0.1-1.3-0.5-1.3-1.2v-0.5
					c0-0.7,0.6-1.2,1.3-1.2l5.6,0.7v-0.1l-3.6-4.7c-0.4-0.6-0.3-1.4,0.3-1.7l0.6-0.3c0.6-0.3,1.4-0.1,1.6,0.5l2.4,5.3h0.1l2.3-5.4
					c0.3-0.6,1-0.9,1.6-0.5L74,46.6z"/>
			</g>
			<g>
				<path class="st1" d="M104.6,46.6c0.6,0.3,0.8,1.2,0.4,1.7l-3.7,4.8v0.1l5.8-0.8c0.7-0.1,1.3,0.5,1.3,1.2v0.5
					c0,0.7-0.6,1.2-1.3,1.2l-5.8-0.7v0.1l3.7,4.6c0.4,0.6,0.3,1.4-0.3,1.7l-0.6,0.4c-0.6,0.3-1.4,0.1-1.7-0.6l-2.3-5.4H100l-2.5,5.4
					c-0.3,0.6-1.1,0.9-1.7,0.5l-0.5-0.3c-0.6-0.4-0.7-1.2-0.3-1.7l3.7-4.7v-0.1l-5.6,0.7c-0.7,0.1-1.3-0.5-1.3-1.2v-0.5
					c0-0.7,0.6-1.2,1.3-1.2l5.6,0.7v-0.1L95,48.4c-0.4-0.6-0.3-1.4,0.3-1.7l0.6-0.3c0.6-0.3,1.4-0.1,1.6,0.5l2.4,5.3h0.1l2.3-5.4
					c0.3-0.6,1-0.9,1.6-0.5L104.6,46.6z"/>
			</g>
			<g>
				<path class="st1" d="M134.9,46.6c0.6,0.3,0.8,1.2,0.4,1.7l-3.7,4.8v0.1l5.8-0.8c0.7-0.1,1.3,0.5,1.3,1.2v0.5
					c0,0.7-0.6,1.2-1.3,1.2l-5.8-0.7v0.1l3.7,4.6c0.4,0.6,0.3,1.4-0.3,1.7l-0.6,0.4c-0.6,0.3-1.4,0.1-1.7-0.6l-2.3-5.4h-0.1
					l-2.5,5.4c-0.3,0.6-1.1,0.9-1.7,0.5l-0.5-0.3c-0.6-0.4-0.7-1.2-0.3-1.7l3.7-4.7v-0.1l-5.6,0.7c-0.7,0.1-1.3-0.5-1.3-1.2v-0.5
					c0-0.7,0.6-1.2,1.3-1.2l5.6,0.7v-0.1l-3.6-4.7c-0.4-0.6-0.3-1.4,0.3-1.7l0.6-0.3c0.6-0.3,1.4-0.1,1.6,0.5l2.4,5.3h0.1l2.3-5.4
					c0.3-0.6,1-0.9,1.6-0.5L134.9,46.6z"/>
			</g>
		</g>
		<g class="st2">
			<g>
				<path class="st1" d="M13.3,1.1c0.6,0.3,0.8,1.2,0.4,1.7L10,7.6v0.1L15.8,7c0.7-0.1,1.3,0.5,1.3,1.2v0.5c0,0.7-0.6,1.2-1.3,1.2
					L10,9.1v0.1l3.7,4.6c0.4,0.6,0.3,1.4-0.3,1.7l-0.6,0.4c-0.6,0.3-1.4,0.1-1.7-0.6L8.7,10H8.6l-2.5,5.4C5.8,16,5,16.3,4.5,15.9
					L4,15.6c-0.6-0.4-0.7-1.2-0.3-1.7l3.7-4.7V9.1L1.7,9.8C1,9.9,0.4,9.3,0.4,8.6V8.1c0-0.7,0.6-1.2,1.3-1.2l5.6,0.7V7.6L3.7,2.9
					C3.3,2.3,3.5,1.5,4.1,1.2l0.6-0.3C5.2,0.5,6,0.8,6.3,1.4l2.4,5.3h0.1l2.3-5.4c0.3-0.6,1-0.9,1.6-0.5L13.3,1.1z"/>
			</g>
			<g>
				<path class="st1" d="M43.8,1.1c0.6,0.3,0.8,1.2,0.4,1.7l-3.7,4.8v0.1L46.3,7c0.7-0.1,1.3,0.5,1.3,1.2v0.5c0,0.7-0.6,1.2-1.3,1.2
					l-5.8-0.7v0.1l3.7,4.6c0.4,0.6,0.3,1.4-0.3,1.7l-0.6,0.4c-0.6,0.3-1.4,0.1-1.7-0.6L39.2,10h-0.1l-2.5,5.4
					c-0.3,0.6-1.1,0.9-1.7,0.5l-0.5-0.3c-0.6-0.4-0.7-1.2-0.3-1.7l3.7-4.7V9.1l-5.6,0.7c-0.7,0.1-1.3-0.5-1.3-1.2V8.1
					c0-0.7,0.6-1.2,1.3-1.2l5.6,0.7V7.6l-3.6-4.7c-0.4-0.6-0.3-1.4,0.3-1.7l0.6-0.3c0.6-0.3,1.4-0.1,1.6,0.5l2.4,5.3h0.1l2.3-5.4
					c0.3-0.6,1-0.9,1.6-0.5L43.8,1.1z"/>
			</g>
			<g>
				<path class="st1" d="M74,1.1c0.6,0.3,0.8,1.2,0.4,1.7l-3.7,4.8v0.1L76.4,7c0.7-0.1,1.3,0.5,1.3,1.2v0.5c0,0.7-0.6,1.2-1.3,1.2
					l-5.8-0.7v0.1l3.7,4.6c0.4,0.6,0.3,1.4-0.3,1.7l-0.6,0.4c-0.6,0.3-1.4,0.1-1.7-0.6L69.4,10h-0.1l-2.5,5.4
					c-0.3,0.6-1.1,0.9-1.7,0.5l-0.5-0.3c-0.6-0.4-0.7-1.2-0.3-1.7L68,9.2V9.1l-5.6,0.7c-0.7,0.1-1.3-0.5-1.3-1.2V8.1
					c0-0.7,0.6-1.2,1.3-1.2L68,7.7V7.6l-3.6-4.7c-0.4-0.6-0.3-1.4,0.3-1.7l0.6-0.3c0.6-0.3,1.4-0.1,1.6,0.5l2.4,5.3h0.1l2.3-5.4
					c0.3-0.6,1-0.9,1.6-0.5L74,1.1z"/>
			</g>
			<g>
				<path class="st1" d="M104.6,1.1c0.6,0.3,0.8,1.2,0.4,1.7l-3.7,4.8v0.1l5.8-0.8c0.7-0.1,1.3,0.5,1.3,1.2v0.5
					c0,0.7-0.6,1.2-1.3,1.2l-5.8-0.7v0.1l3.7,4.6c0.4,0.6,0.3,1.4-0.3,1.7l-0.6,0.4c-0.6,0.3-1.4,0.1-1.7-0.6L100,10H100l-2.5,5.4
					c-0.3,0.6-1.1,0.9-1.7,0.5l-0.5-0.3c-0.6-0.4-0.7-1.2-0.3-1.7l3.7-4.7V9.1l-5.6,0.7c-0.7,0.1-1.3-0.5-1.3-1.2V8.1
					c0-0.7,0.6-1.2,1.3-1.2l5.6,0.7V7.6L95,2.9c-0.4-0.6-0.3-1.4,0.3-1.7L96,0.8c0.6-0.3,1.4-0.1,1.6,0.5l2.4,5.3h0.1l2.3-5.4
					c0.3-0.6,1-0.9,1.6-0.5L104.6,1.1z"/>
			</g>
			<g>
				<path class="st1" d="M134.9,1.1c0.6,0.3,0.8,1.2,0.4,1.7l-3.7,4.8v0.1l5.8-0.8c0.7-0.1,1.3,0.5,1.3,1.2v0.5
					c0,0.7-0.6,1.2-1.3,1.2l-5.8-0.7v0.1l3.7,4.6c0.4,0.6,0.3,1.4-0.3,1.7l-0.6,0.4c-0.6,0.3-1.4,0.1-1.7-0.6l-2.3-5.4h-0.1
					l-2.5,5.4c-0.3,0.6-1.1,0.9-1.7,0.5l-0.5-0.3c-0.6-0.4-0.7-1.2-0.3-1.7l3.7-4.7V9.1l-5.6,0.7c-0.7,0.1-1.3-0.5-1.3-1.2V8.1
					c0-0.7,0.6-1.2,1.3-1.2l5.6,0.7V7.6l-3.6-4.7c-0.4-0.6-0.3-1.4,0.3-1.7l0.6-0.3c0.6-0.3,1.4-0.1,1.6,0.5l2.4,5.3h0.1l2.3-5.4
					c0.3-0.6,1-0.9,1.6-0.5L134.9,1.1z"/>
			</g>
		</g>
	</g>
</g>
</svg>
