<?xml version="1.0" encoding="utf-8"?>
<!-- Generator: Adobe Illustrator 17.1.0, SVG Export Plug-In . SVG Version: 6.00 Build 0)  -->
<!DOCTYPE svg PUBLIC "-//W3C//DTD SVG 1.1//EN" "http://www.w3.org/Graphics/SVG/1.1/DTD/svg11.dtd">
<svg version="1.1" id="Слой_1" xmlns="http://www.w3.org/2000/svg" xmlns:xlink="http://www.w3.org/1999/xlink" x="0px" y="0px"
	 width="72px" height="73px" viewBox="0 0 72 73" style="enable-background:new 0 0 72 73;" xml:space="preserve">
<style type="text/css">
	.st0{fill:#C88366;}
	.st1{fill:#FFFFFF;}
</style>
<g id="теги_x2C__метки_1_">
	<path class="st0" d="M69.3,17.9L24.8,1c-0.8-0.3-1.8-0.3-2.6,0.1L0.6,11.4l9.6,21.4c0.4,0.8,1,1.4,1.9,1.8l44.5,16.9
		c1.7,0.7,3.7-0.2,4.3-1.9l10.3-27.3C71.9,20.5,71,18.6,69.3,17.9z"/>
	<path class="st0" d="M69.1,30L27,5.1c-0.8-0.5-1.8-0.6-2.7-0.4L0.6,11.3l6,23.4c0.2,0.9,0.8,1.6,1.6,2.1l42.1,24.9
		c1.6,1,3.7,0.4,4.7-1.2l15.3-25.8C71.3,33.1,70.7,31,69.1,30z"/>
	<g>
		<polygon class="st1" points="65.8,44.6 64.3,48.4 45.3,70.2 42.7,71 5.2,38.3 3.8,35.3 2.3,12.4 27.7,11.4 		"/>
		<path class="st0" d="M64.1,45c0.3,0.3,0.3,0.7,0.1,1L44.1,69.1c-0.3,0.3-0.7,0.3-1,0.1L5.4,36.3c-0.1-0.1-0.2-0.3-0.2-0.5L3.6,14
			l22.3-2c0.2,0,0.4,0,0.5,0.2L64.1,45 M66,42.9L28.3,10.1c-0.7-0.6-1.7-0.9-2.6-0.9l-25,2.2l1.7,24.6c0.1,0.9,0.5,1.8,1.2,2.4
			l37.7,32.9c1.5,1.3,3.7,1.1,5-0.3l20.1-23.1C67.6,46.4,67.4,44.2,66,42.9L66,42.9z"/>
		<circle class="st0" cx="16.2" cy="24.5" r="5"/>
	</g>
	<polygon class="st1" points="66,42.9 30.5,12 66.5,41 	"/>
	<polygon class="st1" points="68.4,29.6 45,15.8 68.8,28.6 	"/>
</g>
</svg>
